<svg width="24" height="24" viewBox="0 0 24 24" fill="none" xmlns="http://www.w3.org/2000/svg">
<path d="M9.58824 17.6875C14.4939 17.6875 17.1771 13.3108 17.1771 9.51538C17.1771 9.39107 17.1771 9.26732 17.1693 9.14413C17.6913 8.73754 18.1419 8.23412 18.5 7.65742C18.0132 7.8897 17.4968 8.04202 16.9681 8.10931C17.5249 7.75037 17.9416 7.1858 18.1407 6.52069C17.6171 6.85525 17.0443 7.09103 16.447 7.21785C16.0449 6.75738 15.513 6.45247 14.9338 6.35031C14.3545 6.24814 13.7601 6.35441 13.2426 6.65267C12.725 6.95093 12.3132 7.42455 12.0708 8.00025C11.8284 8.57595 11.769 9.22163 11.9017 9.83736C10.8413 9.78012 9.80393 9.48337 8.85693 8.96639C7.90993 8.44941 7.07448 7.72375 6.4048 6.83651C6.06373 7.4688 5.95926 8.21731 6.11268 8.92963C6.26609 9.64194 6.66585 10.2645 7.23056 10.6706C6.80611 10.657 6.39091 10.5337 6.02 10.3111C6.02 10.3229 6.02 10.3352 6.02 10.3475C6.02017 11.0106 6.23334 11.6533 6.62335 12.1664C7.01336 12.6796 7.5562 13.0317 8.1598 13.163C7.76713 13.2783 7.35514 13.2952 6.95548 13.2123C7.12591 13.783 7.45773 14.282 7.90452 14.6397C8.3513 14.9973 8.89072 15.1956 9.44732 15.2069C8.50286 16.0062 7.33615 16.4401 6.13492 16.4388C5.92271 16.4383 5.71071 16.4245 5.5 16.3973C6.71973 17.2402 8.13895 17.6873 9.58824 17.6853" fill="#2D2D35"/>
</svg>
