<svg width="24" height="24" viewBox="0 0 24 24" fill="none" xmlns="http://www.w3.org/2000/svg">
<path d="M19.6703 8.13218C19.486 7.44326 18.9455 6.90019 18.2602 6.71469C17.0081 6.37038 11.9998 6.37038 11.9998 6.37038C11.9998 6.37038 6.9917 6.37038 5.73965 6.70164C5.06748 6.88694 4.51387 7.44336 4.32949 8.13218C4 9.39047 4 12 4 12C4 12 4 14.6227 4.32949 15.8678C4.51406 16.5567 5.0543 17.0997 5.73975 17.2852C7.00489 17.6296 12 17.6296 12 17.6296C12 17.6296 17.0081 17.6296 18.2602 17.2984C18.9456 17.113 19.486 16.5699 19.6705 15.8811C19.9999 14.6227 19.9999 12.0133 19.9999 12.0133C19.9999 12.0133 20.0131 9.39047 19.6703 8.13218ZM10.4053 14.4108V9.58923L14.5699 12L10.4053 14.4108Z" fill="#2D2D35"/>
</svg>
