<svg width="11" height="8" viewBox="0 0 11 8" fill="none" xmlns="http://www.w3.org/2000/svg">
<path d="M10.0405 1.70711C10.431 1.31658 10.431 0.683417 10.0405 0.292893C9.64996 -0.0976311 9.01679 -0.0976311 8.62627 0.292893L10.0405 1.70711ZM3.33337 7L2.62627 7.70711C3.01679 8.09763 3.64996 8.09763 4.04048 7.70711L3.33337 7ZM2.04048 4.29289C1.64996 3.90237 1.01679 3.90237 0.626267 4.29289C0.235743 4.68342 0.235743 5.31658 0.626267 5.70711L2.04048 4.29289ZM8.62627 0.292893L2.62627 6.29289L4.04048 7.70711L10.0405 1.70711L8.62627 0.292893ZM4.04048 6.29289L2.04048 4.29289L0.626267 5.70711L2.62627 7.70711L4.04048 6.29289Z" fill="white"/>
</svg>
