<svg width="82" height="64" viewBox="0 0 82 64" fill="none" xmlns="http://www.w3.org/2000/svg">
<g clip-path="url(#clip0_451_29222)">
<path d="M16.3499 20.7483C17.8813 20.7483 18.3625 21.8467 18.7663 22.9434C18.9359 23.4091 22.9155 34.3072 23.0351 34.6343C23.067 34.7256 23.0455 34.8754 22.9051 34.9296C22.764 34.983 20.6963 35.787 20.5818 35.83C20.4673 35.8739 20.339 35.8102 20.2977 35.6957C20.2546 35.583 19.3964 33.2071 19.3 32.9419H13.4016C13.3086 33.2071 12.44 35.5881 12.4013 35.6957C12.3617 35.8051 12.2386 35.8791 12.1164 35.83C11.9941 35.7818 9.91868 34.9778 9.79472 34.9296C9.67593 34.8831 9.6217 34.748 9.66302 34.6343C9.80936 34.2263 13.7287 23.503 13.9284 22.9434C14.3175 21.8631 14.8151 20.7483 16.3499 20.7483ZM9.34795 40.2486C9.224 40.2486 9.125 40.3519 9.125 40.4776V43.0248C9.125 43.1505 9.224 43.2521 9.34795 43.2521H23.3459C23.4724 43.2521 23.5714 43.1505 23.5714 43.0248V40.4776C23.5714 40.3519 23.4724 40.2486 23.3459 40.2486H9.34795ZM16.3362 24.307L14.3425 30.294H18.3625L16.362 24.307H16.3362ZM46.2525 34.1239C45.959 34.2228 45.7653 34.247 45.5346 34.247C45.0577 34.247 44.7934 34.0584 44.7934 33.5695C44.7934 33.0599 45.1291 32.8894 45.7885 32.8894C45.9495 32.8894 46.1079 32.9127 46.1819 32.9385V33.3035C46.1819 33.6969 46.2035 33.9551 46.2525 34.1239ZM47.9475 34.7075C47.5954 34.1729 47.5033 33.8579 47.5033 33.1838V31.8151C47.5033 31.0782 47.4172 30.8122 47.2227 30.5437C46.9515 30.1632 46.4996 29.9979 45.6689 29.9979C45.0809 29.9979 44.5102 30.0616 43.9576 30.2028L44.1573 31.1755C44.5309 31.123 44.9225 31.0782 45.1989 31.0782C46.0812 31.0782 46.1819 31.2056 46.1819 31.8676V32.1147C45.9857 32.0622 45.7653 32.0243 45.5096 32.0243C44.1814 32.0243 43.4798 32.6742 43.4798 33.7503C43.4798 34.7591 44.2296 35.3092 45.1429 35.3092C45.4838 35.3092 45.8402 35.2464 46.1225 35.131C46.293 35.057 46.367 35.0131 46.5874 34.8702C46.7199 35.063 46.9859 35.2601 47.0944 35.2972L47.9475 34.7075ZM61.0863 34.1239C60.791 34.2228 60.6008 34.247 60.3684 34.247C59.8898 34.247 59.622 34.0584 59.622 33.5695C59.622 33.0599 59.9621 32.8894 60.6232 32.8894C60.7842 32.8894 60.9434 32.9127 61.0157 32.9385V33.3035C61.0157 33.6969 61.0364 33.9551 61.0863 34.1239ZM62.783 34.7075C62.4283 34.1729 62.338 33.8579 62.338 33.1838V31.8151C62.338 31.0782 62.2502 30.8122 62.0539 30.5437C61.7862 30.1632 61.3334 29.9979 60.5001 29.9979C59.913 29.9979 59.3388 30.0616 58.7862 30.2028L58.9833 31.1755C59.3578 31.123 59.7503 31.0782 60.0344 31.0782C60.9116 31.0782 61.0157 31.2056 61.0157 31.8676V32.1147C60.8195 32.0622 60.6008 32.0243 60.34 32.0243C59.01 32.0243 58.3058 32.6742 58.3058 33.7503C58.3058 34.7591 59.0573 35.3092 59.975 35.3092C60.3202 35.3092 60.6731 35.2464 60.9529 35.131C61.1259 35.057 61.1974 35.0131 61.4177 34.8702C61.552 35.063 61.818 35.2601 61.9273 35.2972L62.783 34.7075ZM73.125 35.1947C73.125 35.1947 72.3967 33.6426 72.2185 33.2897C72.018 32.892 71.832 32.6174 71.4223 32.5184V32.496C71.6969 32.4435 71.9155 32.2774 72.1548 31.7695C72.3812 31.2745 72.4484 31.1678 72.5818 31.0498C72.7127 30.9328 72.8917 30.9749 72.8917 30.9749L72.9589 30.0599C72.7686 30.0341 72.5577 30.0332 72.3399 30.0452C71.9784 30.0668 71.7916 30.1709 71.6134 30.35C71.4739 30.4869 71.3792 30.6917 71.2622 30.9267C71.1382 31.1833 71.0401 31.3899 70.9109 31.6507C70.7827 31.9184 70.7224 32.0389 70.3772 32.0389H70.1526V27.9853H68.8226V35.1947H70.1526V33.1218L70.3342 33.1184C70.7155 33.1184 70.7827 33.214 70.9841 33.616C71.22 34.0954 71.6719 35.1947 71.6719 35.1947H73.125ZM35.6583 35.1947H37.1932L34.8715 28.1058C34.627 28.024 34.3249 27.9732 34.0021 27.9732C33.65 27.9732 33.5243 28.0197 33.2488 28.1058L30.792 35.1947H32.2649C32.2649 35.1947 32.4638 34.5732 32.6979 33.8028H35.2425C35.4698 34.5723 35.6583 35.1947 35.6583 35.1947ZM33.0715 32.614C33.0715 32.614 33.4968 31.191 33.5631 30.9698C33.7318 30.3965 33.9883 29.4857 33.9883 29.4857H34.0305C34.0305 29.4857 34.2681 30.4292 34.423 30.9594C34.4816 31.1704 34.8879 32.614 34.8879 32.614H33.0715ZM50.2132 31.8031C49.744 31.8031 49.3627 32.1861 49.3627 32.6553C49.3627 33.1279 49.744 33.5084 50.2132 33.5084C50.6832 33.5084 51.0628 33.1279 51.0628 32.6553C51.0628 32.1861 50.6832 31.8031 50.2132 31.8031ZM39.0155 27.9853H37.6821V35.1939H39.0155V27.9853ZM65.5075 31.1437C66.2444 31.1592 66.3356 31.3115 66.3356 31.9296V35.1947H67.657V31.8151C67.657 31.0782 67.5709 30.8122 67.3747 30.5437C67.1035 30.1632 66.5706 29.9979 65.6694 29.9979C64.7775 29.9979 64.2094 30.0926 63.4786 30.3104V35.1947H64.8137V31.2056C65.1641 31.1549 65.226 31.1437 65.5075 31.1437ZM42.3134 27.857C41.4801 27.857 41.0264 28.0223 40.7596 28.4019C40.5633 28.6714 40.4764 28.9434 40.4764 29.682V30.3104H39.8144V31.3881H40.4764V35.1947H41.7986L41.7952 31.3881H43.1131V30.3104H41.7952L41.7986 29.7328C41.7986 29.0717 41.8993 28.9434 42.7825 28.9434C42.8781 28.9434 42.9857 28.9486 43.1002 28.9572L43.3085 27.9216C42.9822 27.8785 42.6482 27.857 42.3134 27.857ZM52.9222 27.9242C53.3759 27.8975 54.3899 27.8596 55.0261 27.8596C55.1423 27.8596 55.2628 27.8605 55.3833 27.8665C56.6341 27.8665 57.3512 28.7772 57.3512 29.8464C57.3512 30.5738 57.018 31.0567 56.2373 31.3442C57.1558 31.5474 57.637 32.2645 57.637 33.1416C57.637 33.7855 57.4553 34.2969 57.1222 34.6455C56.6901 35.0708 56.0358 35.3092 55.1647 35.3092C54.3899 35.3092 53.4172 35.2851 52.9222 35.2558V27.9242ZM55.0261 29.1052C54.8057 29.1052 54.5328 29.1095 54.2625 29.119V30.8501H55.0269C55.33 30.8501 55.5736 30.7658 55.7397 30.6031C55.8981 30.4498 55.9807 30.2329 55.9807 29.9755C55.9807 29.422 55.6812 29.1087 55.1242 29.1052H55.0261ZM55.0536 34.0662H55.1113C55.806 34.0662 56.2312 33.6969 56.2364 32.9531C56.2295 32.6863 56.1271 32.4401 55.9437 32.2619C55.7432 32.0604 55.4591 31.9554 55.1259 31.9554H54.2625V34.0584C54.5061 34.0636 54.7747 34.0645 55.0536 34.0662Z" fill="#9F9FB0"/>
</g>
<defs>
<clipPath id="clip0_451_29222">
<rect width="64" height="22.5035" fill="white" transform="translate(9.125 20.7483)"/>
</clipPath>
</defs>
</svg>
