<svg width="82" height="64" viewBox="0 0 82 64" fill="none" xmlns="http://www.w3.org/2000/svg">
<path d="M59.1766 43.2085C61.6962 43.2085 62.882 42.2471 63.9179 39.333L68.4557 26.6053H65.8284L62.7854 36.4523H62.732L59.689 26.6186H56.9872L61.365 38.7329L61.1305 39.4697C60.9649 40.5245 60.018 41.2769 58.9521 41.1991C58.7487 41.1991 58.3542 41.178 58.1942 41.1569V43.1574C58.5198 43.2018 58.8488 43.2229 59.1766 43.2218V43.2085ZM50.421 36.8346C49.0429 36.8346 48.1682 36.1678 48.1682 35.1586C48.1682 34.1128 49.0118 33.5037 50.6244 33.4071L53.4963 33.2259V34.1661C53.4329 35.7154 52.1248 36.9213 50.5755 36.858C50.5233 36.8557 50.4721 36.8513 50.421 36.8468V36.8346ZM49.7275 38.8096C51.2912 38.8518 52.7538 38.0371 53.5396 36.6846H53.593V38.6851H55.9847V30.3996C55.9847 27.9967 54.0631 26.4486 51.1045 26.4486C48.3605 26.4486 46.3311 28.0179 46.2566 30.1751H48.585C48.8628 29.0781 49.9053 28.3546 51.0301 28.4769C52.6105 28.4769 53.4963 29.2137 53.4963 30.5696V31.4877L50.2732 31.6799C47.2724 31.8611 45.6498 33.0892 45.6498 35.2253C45.6475 37.3914 47.3235 38.8218 49.7264 38.8218L49.7275 38.8096ZM35.8672 24.2135H38.8458C41.0886 24.2135 42.37 25.4094 42.37 27.5133C42.37 29.6172 41.0886 30.823 38.8358 30.823H35.8672V24.2135ZM33.2832 22.0352V38.6818H35.8672V33.0069H39.4448C42.3589 33.1637 44.8473 30.9286 45.004 28.0145C45.0129 27.8489 45.014 27.6844 45.0074 27.5188C45.1452 24.637 42.9213 22.1897 40.0394 22.0508C39.8694 22.043 39.7004 22.0441 39.5304 22.0519L33.2832 22.0352ZM24.7065 25.1416C23.2217 25.056 21.9513 25.9851 21.2467 25.9851C20.5421 25.9851 19.4529 25.1849 18.2782 25.2071C16.7222 25.2471 15.3041 26.1085 14.5516 27.4711C12.9501 30.2262 14.1349 34.3051 15.683 36.5468C16.441 37.6582 17.3501 38.8751 18.5449 38.8318C19.6763 38.7896 20.1253 38.0949 21.4923 38.0949C22.8594 38.0949 23.265 38.8318 24.4609 38.8096C25.699 38.7885 26.4792 37.6982 27.2394 36.5868C27.7751 35.7999 28.1919 34.9386 28.4775 34.0305C27.0182 33.3926 26.0724 31.9556 26.0646 30.3629C26.0869 28.9581 26.8226 27.6622 28.0185 26.9254C27.2561 25.8429 26.0324 25.1782 24.7087 25.1316L24.7065 25.1416ZM23.7796 23.6712C23.1294 24.4903 22.1347 24.9604 21.0889 24.9415C21.0222 23.9212 21.369 22.9176 22.0503 22.1552C22.7282 21.3684 23.684 20.8749 24.7176 20.7782C24.791 21.8274 24.4542 22.8632 23.7774 23.6678" fill="#9F9FB0"/>
</svg>
