<svg width="82" height="64" viewBox="0 0 82 64" fill="none" xmlns="http://www.w3.org/2000/svg">
<g clip-path="url(#clip0_451_29183)">
<path d="M74.3013 25.1428L73.0156 26.4285H75.5871V31.1428H76.8728V25.1428H74.3013Z" fill="#9F9FB0"/>
<path d="M4.875 32.8571V38.8571H7.44643L8.73214 37.5713H6.16071V32.8571H4.875Z" fill="#9F9FB0"/>
<path fill-rule="evenodd" clip-rule="evenodd" d="M50.5264 29.3212C50.9177 29.3212 51.2053 29.3928 51.1577 29.3928V34.0359H51.7723V36.1158C51.6043 36.1629 51.405 36.1947 51.2053 36.1947C50.9974 36.1947 50.79 36.1707 50.6061 36.1158V35.0221H46.875V29.3928C46.875 29.3928 47.0906 29.3212 47.5136 29.3212C47.8971 29.3212 48.153 29.3928 48.153 29.3928V34.0359H49.854V29.3928C49.854 29.3928 50.0953 29.3212 50.5264 29.3212ZM71.4617 29.3007C72.4204 29.3007 72.9313 29.6041 72.9313 29.6041C72.9472 29.9538 72.7959 30.2418 72.564 30.4595L72.5486 30.4544C72.2516 30.3582 71.9418 30.3075 71.6297 30.3039C70.815 30.3039 70.296 30.7162 70.296 32.2012C70.296 33.6862 70.815 34.0754 71.6297 34.0754C72.1727 34.0754 72.6356 33.9039 72.6356 33.9039C72.8752 34.1139 73.011 34.4487 73.011 34.7825C73.011 34.7825 72.4839 35.0864 71.4617 35.0864C69.8323 35.0864 68.9464 34.0758 68.9464 32.1935C68.9464 30.3117 69.8323 29.3007 71.4617 29.3007ZM61.8463 29.3392V34.9835C61.8463 34.9835 61.6303 35.0551 61.2154 35.0551C60.7517 35.0551 60.5687 34.9839 60.5687 34.9839V30.2992H58.8673V34.9835L58.8549 34.9869C58.8022 35.0011 58.581 35.0547 58.2283 35.0547C57.7731 35.0547 57.5893 34.9835 57.5893 34.9835V29.3392H61.8463ZM67.1284 29.3135C67.6316 29.3135 67.8712 29.3851 67.8712 29.3851V34.9835C67.8712 34.9835 67.6316 35.0551 67.2403 35.0551C66.8092 35.0551 66.6013 34.9839 66.6013 34.9839V33.1025C66.6013 31.7294 66.7213 30.8932 66.7213 30.8932H66.6814L66.6763 30.9018C66.6292 30.9832 66.2576 31.6304 65.721 32.7939L64.686 34.9839C64.6783 34.9839 64.4229 35.0551 63.9193 35.0551C63.3686 35.0551 63.1607 34.9839 63.1607 34.9839V29.3847C63.1607 29.3847 63.4003 29.3135 63.7916 29.3135C64.191 29.3135 64.4387 29.3847 64.4464 29.3847V31.2477C64.4464 32.6049 64.3264 33.5358 64.3264 33.5358H64.3667C64.4944 33.0785 64.9003 32.3521 65.2599 31.5712L66.3939 29.3847C66.3939 29.3847 66.633 29.3135 67.1284 29.3135ZM56.2723 29.3165C56.6156 29.3165 56.895 29.3877 56.895 29.3877L55.386 33.4994C54.9227 34.7379 54.1881 35.0491 53.4853 35.0491C53.1099 35.0491 52.8304 34.9548 52.8304 34.9548C52.8304 34.9548 52.7426 34.7577 52.7426 34.4812C52.7426 34.2129 52.7983 33.9999 52.7983 33.9999C52.7983 33.9999 53.046 34.0317 53.2697 34.0317C53.5894 34.0317 53.8766 33.8782 54.1401 33.3258H53.8526L52.0316 29.3877C52.0316 29.3877 52.2874 29.3165 52.7186 29.3165C53.1896 29.3165 53.4056 29.3877 53.4056 29.3877L54.3 31.3612C54.5156 31.8507 54.6116 32.2214 54.6116 32.2214H54.6433C54.6433 32.2214 54.7307 31.8507 54.9227 31.3458L55.6496 29.3877C55.6496 29.3877 55.8891 29.3165 56.2723 29.3165Z" fill="#9F9FB0"/>
<path d="M8.73438 34.9999V29.3513H12.5967C12.6352 29.47 12.6858 29.5986 12.6858 29.8733C12.6858 30.0632 12.6434 30.2445 12.5967 30.379H9.98366V31.5439H12.1694C12.2088 31.6785 12.2478 31.8207 12.2478 32.0106C12.2478 32.2082 12.2165 32.4263 12.1698 32.5686H9.98409V33.9829H12.5144C12.5615 34.1093 12.5928 34.3806 12.5928 34.5546C12.5928 34.7286 12.5692 34.8572 12.5144 34.9995H8.73438V34.9999Z" fill="#9F9FB0"/>
<path fill-rule="evenodd" clip-rule="evenodd" d="M17.6231 29.3522V34.081H18.1772V36.0915C18.0135 36.1386 17.8417 36.1708 17.6231 36.1708C17.4045 36.1708 17.2091 36.1468 17.0372 36.0915V35.0003H14.1478V36.0915C13.9764 36.1386 13.6794 36.1626 13.4608 36.1626C13.2422 36.1626 13.1715 36.139 13.0078 36.0915V34.0815H13.6335C13.8658 33.0332 13.9262 30.6795 14.1007 29.5206C14.1081 29.4733 14.1323 29.4302 14.1689 29.3993C14.2055 29.3683 14.252 29.3516 14.3 29.3522H17.6227H17.6231ZM16.436 30.3169H15.0881C14.9955 31.8238 14.9441 32.6338 14.867 34.081H16.4364V30.3169H16.436Z" fill="#9F9FB0"/>
<path d="M22.2587 29.4231L21.0784 31.6769C20.727 32.4599 20.3276 33.1002 20.2029 33.5588H20.1634C20.1634 33.5588 20.2809 32.6258 20.2809 31.2659V29.4231L20.2672 29.4201C20.0617 29.3727 19.8514 29.3498 19.6406 29.3519C19.2579 29.3519 19.0234 29.4231 19.0234 29.4231V34.9744C19.0234 34.9744 19.2266 35.0455 19.7653 35.0455C20.2024 35.0455 20.4484 34.9898 20.5033 34.9769L20.5119 34.9748C20.5129 34.9748 20.5139 34.9748 20.5149 34.9748L21.6506 32.7681C22.2652 31.5081 22.5399 30.9098 22.5399 30.9098H22.5793C22.5793 30.9098 22.4619 31.7481 22.4619 33.1238V34.9744C22.4619 34.9744 22.665 35.0455 23.0867 35.0455C23.4694 35.0455 23.7039 34.9744 23.7039 34.9744V29.4231C23.7039 29.4231 23.4694 29.3519 22.9774 29.3519C22.4932 29.3519 22.2587 29.4231 22.2587 29.4231ZM26.2924 31.6135H28.4807V29.4231C28.4807 29.4231 28.7229 29.3519 29.1056 29.3519C29.4883 29.3519 29.7304 29.4231 29.7304 29.4231V34.9744C29.7304 34.9744 29.496 35.0455 29.1133 35.0455C28.692 35.0455 28.4807 34.9744 28.4807 34.9744V32.6417H26.2924V34.9744C26.2924 34.9744 26.0426 35.0455 25.6676 35.0455C25.2536 35.0455 25.0427 34.9744 25.0427 34.9744V29.4231C25.0427 29.4231 25.2772 29.3519 25.6599 29.3519C26.0503 29.3519 26.2924 29.4231 26.2924 29.4231V31.6135Z" fill="#9F9FB0"/>
<path fill-rule="evenodd" clip-rule="evenodd" d="M31.0234 29.3873V35.0102H33.3034C34.4362 35.0102 35.139 34.3459 35.139 33.2385C35.139 31.9729 34.3749 31.4847 33.1894 31.5512H32.2727V29.3873C32.2727 29.3873 32.0464 29.3162 31.6483 29.3162C31.2266 29.3162 31.0234 29.3873 31.0234 29.3873ZM32.2727 32.542H33.1239C33.585 32.542 33.9866 32.6492 33.9866 33.2385C33.9866 33.8277 33.585 34.0215 33.1239 34.0215H32.2727V32.5425V32.542Z" fill="#9F9FB0"/>
<path d="M35.7266 29.4225V34.9738C35.7266 34.9738 35.9378 35.0449 36.3518 35.0449C36.7264 35.0449 36.9763 34.9738 36.9763 34.9738V29.4225C36.9763 29.4225 36.7423 29.3514 36.3514 29.3514C35.9691 29.3514 35.727 29.4225 35.727 29.4225H35.7266ZM40.344 31.7154L41.5903 29.4195C41.5903 29.4195 41.7527 29.3509 42.2366 29.3509C42.7286 29.3509 42.963 29.4225 42.963 29.4225V34.9738C42.963 34.9738 42.7286 35.0449 42.3458 35.0449C41.9241 35.0449 41.7214 34.9738 41.7214 34.9738V33.1232C41.7214 31.7475 41.8384 30.9092 41.8384 30.9092H41.7994C41.7994 30.9092 41.5243 31.5071 40.9097 32.7675L39.7804 34.9738L39.7688 34.9764C39.7136 34.9892 39.4676 35.0449 39.0308 35.0449C38.4917 35.0449 38.289 34.9738 38.289 34.9738V29.4225C38.289 29.4225 38.523 29.3514 38.9061 29.3514C39.1215 29.3491 39.3364 29.373 39.546 29.4225V31.2654C39.546 32.6252 39.429 33.5582 39.429 33.5582H39.468C39.5931 33.0996 39.9926 32.4984 40.344 31.7154ZM41.7308 28.1548C41.7308 27.8976 41.6528 27.7386 41.6528 27.7386H39.6814C39.6814 27.7386 39.603 27.9572 39.603 28.1544C39.603 28.3519 39.6818 28.5709 39.6818 28.5709H41.6528C41.6528 28.5709 41.7308 28.4115 41.7308 28.1548Z" fill="#9F9FB0"/>
</g>
<defs>
<clipPath id="clip0_451_29183">
<rect width="72" height="13.7143" fill="white" transform="translate(4.875 25.1428)"/>
</clipPath>
</defs>
</svg>
