<svg width="82" height="64" viewBox="0 0 82 64" fill="none" xmlns="http://www.w3.org/2000/svg">
<path d="M39.3937 31.751V38.0702H37.375V22.4647H42.7289C43.3679 22.4514 44.0033 22.564 44.5983 22.7958C45.1934 23.0277 45.7363 23.3743 46.1957 23.8157C46.6598 24.2302 47.0291 24.7386 47.2789 25.3067C47.5287 25.8747 47.6531 26.4893 47.6439 27.1091C47.6572 27.7322 47.5346 28.3508 47.2847 28.9225C47.0347 29.4942 46.6632 30.0054 46.1957 30.4212C45.2595 31.3078 44.1039 31.7506 42.7289 31.7498H39.3937V31.751ZM39.3937 24.3859V29.8335H42.779C43.1501 29.8444 43.5195 29.7783 43.8634 29.6394C44.2073 29.5004 44.5183 29.2917 44.7764 29.0266C45.0331 28.7788 45.2372 28.4823 45.3765 28.1548C45.5158 27.8272 45.5876 27.4753 45.5876 27.1197C45.5876 26.7641 45.5158 26.4121 45.3765 26.0846C45.2372 25.7571 45.0331 25.4606 44.7764 25.2127C44.5215 24.942 44.2117 24.7282 43.8673 24.5855C43.523 24.4427 43.152 24.3743 42.779 24.3847H39.3937V24.3859Z" fill="#9F9FB0"/>
<path d="M52.2899 27.0448C53.782 27.0448 54.9597 27.4408 55.8232 28.2327C56.6867 29.0246 57.118 30.1104 57.1172 31.49V38.0706H55.1863V36.5889H55.0985C54.2626 37.8092 53.1509 38.4193 51.7633 38.4193C50.5788 38.4193 49.5879 38.0706 48.7905 37.3734C48.4078 37.0533 48.1018 36.6525 47.8949 36.2002C47.6879 35.7478 47.5853 35.2553 47.5943 34.7585C47.5943 33.6537 48.0148 32.775 48.8557 32.1225C49.6966 31.4701 50.8192 31.143 52.2234 31.1414C53.4221 31.1414 54.4093 31.3593 55.185 31.7951V31.3368C55.1873 30.9982 55.1136 30.6633 54.9694 30.3564C54.8252 30.0495 54.614 29.7783 54.3512 29.5625C53.8174 29.0842 53.1217 28.8232 52.4027 28.8316C51.2751 28.8316 50.3828 29.3039 49.7258 30.2486L47.9479 29.1367C48.9259 27.7421 50.3732 27.0448 52.2899 27.0448ZM49.6782 34.8021C49.6768 35.0572 49.7369 35.309 49.8533 35.5364C49.9698 35.7638 50.1393 35.9603 50.3477 36.1095C50.7942 36.4583 51.3483 36.643 51.9163 36.6325C52.7681 36.6311 53.5847 36.2944 54.1869 35.6961C54.8557 35.0711 55.19 34.3377 55.19 33.4959C54.5606 32.9979 53.6829 32.7489 52.557 32.7489C51.737 32.7489 51.0532 32.9452 50.5057 33.3378C49.9528 33.7363 49.6782 34.2206 49.6782 34.8021Z" fill="#9F9FB0"/>
<path d="M68.2085 27.3964L61.4679 42.7802H59.384L61.8854 37.3974L57.4531 27.3964H59.6473L62.8509 35.0665H62.8948L66.0105 27.3964H68.2085Z" fill="#9F9FB0"/>
<path d="M31.2315 30.3897C31.2322 29.7787 31.1802 29.1689 31.076 28.5668H22.5625V32.0196H27.4386C27.3389 32.5711 27.1277 33.0967 26.8178 33.565C26.5079 34.0332 26.1058 34.4343 25.6356 34.744V36.9853H28.5458C30.2497 35.4251 31.2315 33.1178 31.2315 30.3897Z" fill="#9393A6"/>
<path d="M22.5659 39.152C25.0021 39.152 27.0534 38.3576 28.5492 36.9879L25.639 34.7466C24.8291 35.292 23.7859 35.6033 22.5659 35.6033C20.2112 35.6033 18.2126 34.0269 17.4979 31.9027H14.5V34.2125C15.2514 35.6973 16.4035 36.9455 17.8278 37.8177C19.2522 38.69 20.8926 39.1519 22.5659 39.152Z" fill="#9F9FB0"/>
<path d="M17.4983 31.9003C17.1204 30.7872 17.1204 29.5818 17.4983 28.4687V26.1589H14.5003C13.8683 27.408 13.5391 28.7866 13.5391 30.1845C13.5391 31.5825 13.8683 32.961 14.5003 34.2101L17.4983 31.9003Z" fill="#BCBCCA"/>
<path d="M22.5659 24.7691C23.8533 24.7482 25.0973 25.2313 26.029 26.1139L28.6056 23.5551C26.9718 22.0311 24.8073 21.1944 22.5659 21.2204C20.8926 21.2205 19.2522 21.6825 17.8278 22.5547C16.4035 23.4269 15.2514 24.6751 14.5 26.16L17.4979 28.4697C18.2126 26.3455 20.2112 24.7691 22.5659 24.7691Z" fill="#9F9FB0"/>
</svg>
