<svg width="83" height="64" viewBox="0 0 83 64" fill="none" xmlns="http://www.w3.org/2000/svg">
<path d="M48.4757 19.0542L34.3594 19.1028L34.7871 44.9462L48.9035 44.8977L48.4757 19.0542Z" fill="#9393A6"/>
<path d="M35.2849 32.0778C35.1975 26.8214 37.5522 22.151 41.2404 19.1215C38.4565 16.9369 34.9664 15.6233 31.1831 15.6362C22.2201 15.6669 15.091 23.0507 15.2422 32.1464C15.3933 41.2422 22.767 48.5762 31.7299 48.5455C35.5133 48.5326 38.9593 47.1952 41.6703 44.9918C37.8826 42.0337 35.3722 37.3341 35.2849 32.0778Z" fill="#9F9FB0"/>
<path d="M68.01 31.8535C68.1612 40.9493 61.0321 48.333 52.0692 48.3637C48.2858 48.3767 44.7957 47.063 42.0118 44.8785C45.745 41.8488 48.0547 37.1785 47.9673 31.9222C47.88 26.6658 45.3704 22.012 41.5819 19.0081C44.2929 16.8048 47.7389 15.4674 51.5223 15.4544C60.4852 15.4237 67.8596 22.8035 68.01 31.8535Z" fill="#BCBCCA"/>
</svg>
