<svg width="83" height="64" viewBox="0 0 83 64" fill="none" xmlns="http://www.w3.org/2000/svg">
<path d="M40.6719 34.8909H42.2919C43.1112 34.8909 43.7071 35.3192 43.7071 36.064C43.7071 36.4923 43.5022 36.8461 43.1485 37.0323V37.0509C43.6512 37.1999 43.8933 37.6654 43.8933 38.1309C43.8933 39.0433 43.1671 39.453 42.3291 39.453H40.6719V34.8909ZM42.3105 36.753C42.6643 36.753 42.8691 36.4923 42.8691 36.1757C42.8691 35.8592 42.6643 35.6171 42.2919 35.6171H41.5098V36.7716H42.3105V36.753ZM42.385 38.7454C42.8133 38.7454 43.0553 38.4661 43.0553 38.075C43.0553 37.7026 42.8133 37.4233 42.385 37.4233H41.4912V38.7454H42.385ZM46.165 36.1012C46.6119 36.1012 47.1147 36.2502 47.4313 36.5854L47.0588 37.144C46.854 36.9392 46.5375 36.7902 46.2023 36.7902C45.6064 36.7902 45.2154 37.2371 45.2154 37.7957C45.2154 38.3544 45.6064 38.8199 46.2395 38.8199C46.5933 38.8199 46.9657 38.6337 47.2078 38.4102L47.5244 38.9875C47.2078 39.3226 46.705 39.5275 46.1837 39.5275C45.1036 39.5275 44.3961 38.764 44.3961 37.8144C44.3961 36.8833 45.085 36.1012 46.165 36.1012ZM49.4796 36.1012C50.4106 36.1012 50.932 36.7902 50.932 37.6468C50.932 37.7585 50.9134 37.8516 50.9134 37.9633H48.6602C48.7161 38.5406 49.1444 38.8385 49.6471 38.8385C49.9823 38.8385 50.3175 38.6895 50.5782 38.4847L50.8947 39.0619C50.5596 39.3599 50.0382 39.5275 49.5727 39.5275C48.4926 39.5275 47.8037 38.7454 47.8037 37.8144C47.8223 36.8088 48.5113 36.1012 49.4796 36.1012ZM48.5485 34.8909H49.1816V35.6357H48.5485V34.8909ZM50.1127 37.4047C50.1127 36.9764 49.8147 36.7157 49.4609 36.7157C49.0513 36.7157 48.7533 36.995 48.6789 37.4047H50.1127ZM49.7216 34.8909H50.3361V35.6357H49.7216V34.8909ZM53.2224 36.1757H56.2017V39.453H55.3824V36.8647H54.0231V39.453H53.2037V36.1757H53.2224ZM57.0769 36.1757H57.8217V36.4178C57.8217 36.5481 57.8031 36.6412 57.8031 36.6412H57.8217C58.0265 36.2874 58.4362 36.0826 58.8831 36.0826C59.7769 36.0826 60.3355 36.7902 60.3355 37.7957C60.3355 38.8385 59.7024 39.5089 58.8459 39.5089C58.4734 39.5089 58.1383 39.3413 57.8962 39.0433H57.8776C57.8776 39.0433 57.8962 39.1551 57.8962 39.3226V40.7006H57.0769V36.1757ZM58.6783 38.8385C59.1252 38.8385 59.4976 38.4661 59.4976 37.833C59.4976 37.2185 59.1624 36.8088 58.6969 36.8088C58.2686 36.8088 57.8776 37.1254 57.8776 37.8516C57.859 38.3357 58.1569 38.8385 58.6783 38.8385ZM62.6073 36.1012C63.6128 36.1012 64.4135 36.8088 64.4135 37.8144C64.4135 38.8199 63.6128 39.5275 62.6073 39.5275C61.6018 39.5275 60.8011 38.8199 60.8011 37.8144C60.8011 36.8088 61.6204 36.1012 62.6073 36.1012ZM62.6073 38.8385C63.1473 38.8385 63.5756 38.4288 63.5756 37.8144C63.5756 37.2185 63.1287 36.7902 62.6073 36.7902C62.0859 36.7902 61.639 37.1999 61.639 37.8144C61.639 38.4288 62.0673 38.8385 62.6073 38.8385ZM65.0652 36.1757H65.8473V38.764H66.8715V36.1757H67.6535V38.764H68.6777V36.1757H69.4598V38.764H69.9253V40.2351H69.1991V39.4716H65.1025V36.1757H65.0652ZM71.9177 36.1012C72.8488 36.1012 73.3702 36.7902 73.3702 37.6468C73.3702 37.7585 73.3515 37.8516 73.3515 37.9633H71.0984C71.1543 38.5406 71.5826 38.8385 72.0853 38.8385C72.4205 38.8385 72.7557 38.6895 73.0164 38.4847L73.3329 39.0619C72.9977 39.3599 72.4764 39.5275 72.0108 39.5275C70.9308 39.5275 70.2418 38.7454 70.2418 37.8144C70.2418 36.8088 70.9308 36.1012 71.9177 36.1012ZM72.5508 37.4047C72.5508 36.9764 72.2529 36.7157 71.8991 36.7157C71.4894 36.7157 71.1915 36.995 71.117 37.4047H72.5508Z" fill="#9F9FB0"/>
<path d="M54.6982 21.8222V31.2257C54.6982 31.3747 54.5865 31.4864 54.4376 31.4864H52.5196C52.3706 31.4864 52.2589 31.3747 52.2589 31.2257V21.8222C52.2589 21.6732 52.3706 21.5615 52.5196 21.5615H54.4376C54.5865 21.5615 54.6982 21.6918 54.6982 21.8222ZM69.6694 21.5615H67.528C67.4163 21.5615 67.3232 21.6359 67.286 21.7477L65.5915 27.3153L63.7294 21.7477C63.6921 21.6359 63.599 21.5801 63.4873 21.5801H61.9604C61.8487 21.5801 61.7556 21.6546 61.7183 21.7477L59.8562 27.3153L58.1617 21.7477C58.1245 21.6359 58.0314 21.5615 57.9197 21.5615H55.7783C55.7038 21.5615 55.6107 21.5987 55.5734 21.6732C55.5176 21.7477 55.5176 21.8222 55.5362 21.8966L58.7017 31.3188C58.739 31.4305 58.8321 31.4864 58.9438 31.4864H60.6569C60.7687 31.4864 60.8618 31.4119 60.899 31.3188L62.7425 25.8257L64.5859 31.3188C64.6232 31.4305 64.7163 31.4864 64.828 31.4864H66.5411C66.6529 31.4864 66.746 31.4119 66.7832 31.3188L69.9488 21.8966C69.9674 21.8222 69.9674 21.7291 69.9115 21.6732C69.837 21.6173 69.7625 21.5615 69.6694 21.5615ZM72.9095 21.5615H70.9915C70.8426 21.5615 70.7308 21.6732 70.7308 21.8222V31.2257C70.7308 31.3747 70.8426 31.4864 70.9915 31.4864H72.9095C73.0584 31.4864 73.1702 31.3747 73.1702 31.2257V21.8222C73.1702 21.6918 73.0584 21.5615 72.9095 21.5615ZM51.1603 31.1698C51.272 31.3002 51.1789 31.4864 51.0113 31.4864H48.6651C48.572 31.4864 48.4789 31.4492 48.423 31.3747L48.032 30.8905C47.2127 31.4119 46.2444 31.7285 45.2202 31.7285C42.3526 31.7285 40.025 29.4009 40.025 26.5332C40.025 23.6656 42.3526 21.338 45.2202 21.338C48.0878 21.338 50.4154 23.6656 50.4154 26.5332C50.4154 27.5574 50.1175 28.5257 49.5961 29.345L51.1603 31.1698ZM46.4864 29.0657L45.4623 27.8181C45.3506 27.6877 45.4437 27.4829 45.6113 27.4829H47.7713C47.883 27.185 47.9389 26.8498 47.9389 26.5146C47.9389 24.9691 46.7844 23.6284 45.2016 23.6284C43.6188 23.6284 42.4643 24.9691 42.4643 26.5146C42.4643 28.0602 43.6188 29.3822 45.2016 29.3822C45.6671 29.4009 46.0954 29.2891 46.4864 29.0657ZM32.2601 36.9796C32.3346 37.5382 32.167 37.7803 31.9808 37.7803C31.7946 37.7803 31.5339 37.5568 31.2545 37.1099C30.9752 36.663 30.8635 36.1602 31.0125 35.8996C31.1056 35.732 31.2918 35.6575 31.5525 35.7506C32.018 35.8996 32.2042 36.6444 32.2601 36.9796ZM29.6345 38.1899C30.2118 38.6741 30.3794 39.2513 30.0814 39.6424C29.9138 39.8658 29.6345 39.9775 29.318 39.9775C29.0014 39.9775 28.6662 39.8658 28.4428 39.661C27.9214 39.2141 27.7724 38.4692 28.1076 38.0596C28.238 37.892 28.4614 37.7989 28.7035 37.7989C29.02 37.8175 29.3366 37.9665 29.6345 38.1899ZM28.6662 42.8451C31.1242 42.8451 33.787 43.6831 36.7291 46.3086C37.027 46.5693 37.4181 46.2528 37.1574 45.9176C34.2525 42.2493 31.5711 41.5603 28.9083 40.9644C25.631 40.2382 23.9552 38.3948 22.782 36.3837C22.54 35.974 22.4469 36.0485 22.4282 36.5699C22.4096 37.203 22.4469 38.041 22.5958 38.8603C22.4655 38.8603 22.3351 38.8603 22.2048 38.8603C17.531 38.8603 13.7323 35.0616 13.7323 30.3878C13.7323 25.7139 17.531 21.9153 22.2048 21.9153C26.8786 21.9153 30.6773 25.7139 30.6773 30.3878C30.6773 30.7229 30.6587 31.0581 30.6214 31.3747C30.0069 31.263 28.778 31.2443 27.9214 31.3188C27.6049 31.3374 27.6421 31.505 27.8842 31.5423C30.6773 32.045 32.6139 33.7768 33.0422 36.9423C33.0608 37.0168 33.1539 37.0354 33.1911 36.9796C34.3456 35.0616 34.9973 32.8085 34.9973 30.4064C34.9973 23.3304 29.2621 17.5952 22.1862 17.5952C15.1102 17.5952 9.375 23.3304 9.375 30.4064C9.375 37.4823 15.1102 43.2176 22.1862 43.2176C24.0669 43.2176 25.929 42.8451 28.6662 42.8451Z" fill="#9F9FB0"/>
</svg>
