<svg width="83" height="64" viewBox="0 0 83 64" fill="none" xmlns="http://www.w3.org/2000/svg">
<path d="M46.0588 31.3662L42.4936 27.484L38.5322 30.97L42.0974 34.9314L46.0588 31.3662Z" fill="#9F9FB0"/>
<path d="M35.68 24.315L39.2452 28.1971L43.2066 24.7111L39.6414 20.829L35.68 24.315Z" fill="#9F9FB0"/>
<path d="M48.8317 38.1005L45.2665 34.2183L41.3051 37.7835L44.8704 41.6657L48.8317 38.1005Z" fill="#9F9FB0"/>
<path d="M44.7119 44.5971L38.2153 37.3874L40.0375 35.8029L35.4423 30.7323L37.2646 29.1478L32.6694 24.0773L39.8791 17.6599L42.1766 20.1159L46.138 16.7092L48.4356 19.086L49.9409 17.7391C49.624 17.5807 49.2278 17.343 48.9109 17.1845C46.6134 16.2338 44.1573 15.6 41.5428 15.6C32.4317 15.6 24.9844 22.9681 24.9844 32C24.9844 41.0319 32.4317 48.4 41.6221 48.4C44.6327 48.4 47.4056 47.6077 49.7824 46.2608C50.5747 45.7855 51.2877 45.3101 52.0008 44.8348L48.6733 41.1111L44.7119 44.5971Z" fill="#9F9FB0"/>
<path d="M42.9689 22.4135L45.5834 25.3449L48.594 22.7304L45.9003 19.799L42.9689 22.4135Z" fill="#9F9FB0"/>
<path d="M51.2878 28.5932L48.594 25.6618L45.6626 28.3555L48.3563 31.2077L51.2878 28.5932Z" fill="#9F9FB0"/>
<path d="M53.823 34.7729L51.1293 31.8415L48.1979 34.456L50.8916 37.4666L53.823 34.7729Z" fill="#9F9FB0"/>
<path d="M53.9815 25.1072L52.0008 26.8502L53.823 28.8309L55.7245 27.0879L53.9815 25.1072Z" fill="#9F9FB0"/>
<path d="M54.5361 32.6338L56.2791 34.6145L58.2597 32.8715L56.4375 30.8908L54.5361 32.6338Z" fill="#9F9FB0"/>
<path d="M49.4655 21.0666L51.2878 23.0473L53.1892 21.3043L51.4462 19.3236L49.4655 21.0666Z" fill="#9F9FB0"/>
<path d="M50.8124 40.398L53.5061 43.3294L56.4375 40.715L53.7438 37.7835L50.8124 40.398Z" fill="#9F9FB0"/>
</svg>
