<svg width="83" height="64" viewBox="0 0 83 64" fill="none" xmlns="http://www.w3.org/2000/svg">
<g clip-path="url(#clip0_451_29164)">
<path d="M21.5383 25.3054C17.8097 25.3054 14.8438 28.3137 14.8438 32C14.8438 35.7286 17.8521 38.6945 21.5383 38.6945C25.2245 38.6945 28.2329 35.6862 28.2329 32C28.2752 28.3137 25.2245 25.3054 21.5383 25.3054ZM21.5383 34.4998C20.1824 34.4998 19.0384 33.3558 19.0384 32C19.0384 30.6441 20.1824 29.5001 21.5383 29.5001C22.8942 29.5001 24.0382 30.6441 24.0382 32C24.0382 33.3558 22.9365 34.4998 21.5383 34.4998Z" fill="#8B3FFD"/>
<path d="M14.8408 27.2544V36.9996H12.4257L9.375 27.2544H14.8408Z" fill="#8B3FFD"/>
<path d="M71.3233 28.9921L69.8403 32.6359C69.798 32.6783 69.798 32.763 69.798 32.8054L69.7555 32.8901L69.7131 32.8054C69.7131 32.763 69.6708 32.6783 69.6708 32.6359L68.1879 28.9921H66.2812L68.781 35.2205L67.7219 37.5933H69.6285L73.1453 28.9921H71.3233Z" fill="black"/>
<path d="M57.2506 29.3302C56.9116 29.076 56.488 28.9065 55.9795 28.8642C55.1322 28.7794 54.3273 29.076 53.7764 29.6268V28.9489H52.0391V35.1774H53.7764V31.9148C53.7764 31.1945 53.9034 30.9827 54.0306 30.8132C54.2424 30.4743 54.6237 30.3048 55.0899 30.3048C55.5558 30.3048 55.9795 30.5166 56.1916 30.8556C56.3185 31.1098 56.3608 31.4488 56.3608 31.6182C56.3608 32.1691 56.3608 35.1774 56.3608 35.1774H58.0982V31.4064C58.0982 30.4319 57.8015 29.7539 57.2506 29.3302Z" fill="black"/>
<path d="M48.7345 29.034C47.8872 28.7374 46.9551 28.7798 46.1075 29.1611C45.5567 29.4153 45.0485 29.839 44.7518 30.3899C44.4551 30.8559 44.3281 31.4491 44.3281 32.0847C44.3281 32.7202 44.4551 33.3134 44.7518 33.7795C45.0485 34.2456 45.4298 34.6693 45.938 34.9235C46.4466 35.1777 47.0397 35.3472 47.5905 35.3472C47.8872 35.3472 48.1837 35.3048 48.4804 35.2201C48.7345 35.1354 48.9889 35.0506 49.243 34.9235C49.7515 34.6269 50.1752 34.2456 50.4295 33.7795C50.726 33.3134 50.8532 32.7202 50.8532 32.0847C50.8955 30.6864 50.0905 29.5001 48.7345 29.034ZM49.243 32.1694C49.2007 32.7202 49.0312 33.1863 48.6922 33.4829C48.4381 33.6948 48.0567 33.8219 47.5905 33.8642C47.1246 33.8642 46.7856 33.7371 46.4889 33.4829C46.1501 33.1863 45.9806 32.7202 45.938 32.1694C45.8957 31.5339 46.1501 31.0254 46.6161 30.6864C46.8702 30.517 47.2092 30.3899 47.5482 30.3899C47.9295 30.3899 48.2262 30.517 48.5227 30.6864C49.0312 30.983 49.2853 31.5339 49.243 32.1694Z" fill="black"/>
<path d="M42.3407 29.3307C42.0017 29.0765 41.5781 28.907 41.0695 28.8646C40.9849 28.8646 40.8577 28.8646 40.7731 28.8646C40.0951 28.8646 39.5019 29.1612 38.9934 29.7544L38.9088 29.8815H38.7393C38.6121 29.6697 38.4426 29.5002 38.2731 29.3731C37.9341 29.1189 37.5104 28.9494 37.0019 28.907C36.197 28.8223 35.5614 29.0765 35.0106 29.6697V29.0341H33.2734V35.2626H35.0106V32.0001V31.9153C35.0106 31.2374 35.0954 31.0679 35.2225 30.8561C35.4343 30.5171 35.8157 30.3052 36.2393 30.3476C36.6632 30.3476 37.0445 30.5595 37.2563 30.8984C37.4258 31.1526 37.4258 31.4492 37.4258 31.7458V35.2202H39.1629V31.8729C39.1629 31.2374 39.2476 31.0255 39.3748 30.8137C39.5866 30.4747 39.9679 30.3052 40.3918 30.3052C40.8154 30.3052 41.1544 30.5171 41.3662 30.8561C41.4934 31.0679 41.5358 31.3221 41.5358 31.4916C41.5358 31.5763 41.5358 31.6611 41.5358 31.7035V35.1779H43.2729V31.3645C43.2729 31.0255 43.2305 30.6866 43.1457 30.39C42.9764 29.9663 42.722 29.5849 42.3407 29.3307Z" fill="black"/>
<path d="M64.6298 33.3134C64.3756 33.5677 63.7822 34.0338 62.9773 34.0761C62.2993 34.1185 61.791 33.9066 61.4097 33.5253C61.2402 33.3558 61.113 33.1016 61.0284 32.8474H65.8161V32.805C65.8586 32.5508 65.9009 32.3389 65.9009 32.0847C65.9009 31.8729 65.8586 31.5763 65.7737 31.1949C65.5619 30.4746 65.1383 29.9238 64.5875 29.5001C63.9517 29.034 63.3586 28.9069 63.1891 28.9069C61.9605 28.6951 60.5622 29.2459 59.8418 30.3899C59.3333 31.1949 59.3759 31.9999 59.3759 32.2542C59.3759 32.5508 59.4182 33.4829 60.1808 34.3304C61.0707 35.3049 62.2993 35.3472 62.6806 35.3896C64.3756 35.432 65.5196 34.3727 65.7737 34.1609L64.6298 33.3134ZM61.6638 30.6865C61.9179 30.517 62.2146 30.3899 62.596 30.3899C62.9773 30.3899 63.274 30.517 63.5704 30.6865C63.8248 30.8983 64.0366 31.1526 64.1636 31.4491H61.113C61.1553 31.1526 61.3671 30.856 61.6638 30.6865Z" fill="black"/>
</g>
<defs>
<clipPath id="clip0_451_29164">
<rect width="64" height="13.3891" fill="white" transform="translate(9.375 25.3054)"/>
</clipPath>
</defs>
</svg>
