<svg width="24" height="24" viewBox="0 0 24 24" fill="none" xmlns="http://www.w3.org/2000/svg">
<path d="M17.5556 5.33334H13.8111C13.2 4.02223 11.8778 3.11111 10.3333 3.11111C8.37778 3.11111 6.76667 4.56667 6.5 6.44445H4.22222C3 6.44445 2 7.43334 2 8.66667V17.5556C2 18.7778 2.98889 19.7778 4.22222 19.7778H6.44444C6.44444 20.3889 6.94444 20.8889 7.55556 20.8889H17.5667C20.0222 20.8889 22 18.9 22 16.4556V9.77778C22 7.32223 20.0111 5.33334 17.5556 5.33334ZM4.22222 18.6667C3.61111 18.6667 3.11111 18.1667 3.11111 17.5556V8.66667C3.11111 8.05556 3.61111 7.55556 4.22222 7.55556H6.44444V18.6667H4.22222ZM7.55556 19.7778V7.08889C7.55556 5.85556 8.3 4.68889 9.47778 4.34445C11.1778 3.84445 12.7444 4.91111 13.0556 6.44445C13.0889 6.62223 13.1111 6.81111 13.1111 7C13.1111 7.18889 13.1111 12 13.1111 12C13.1111 12.4222 12.8667 12.7778 12.5222 12.9667C12.4556 13 12.4 13.0222 12.3333 13.0444C12.2333 13.0778 12.1222 13.1111 12 13.1111C11.8778 13.1111 11.7667 13.0778 11.6667 13.0444C11.5889 13.0111 11.5111 12.9778 11.4333 12.9333C11.1111 12.7333 10.8889 12.4 10.8889 12V6.44445H9.77778V12C9.77778 13.0333 10.4778 13.8889 11.4333 14.1444V16.4444C11.4333 17.7778 12.0333 18.9667 12.9667 19.7778H7.55556ZM20.8889 16.4444C20.8889 18.2889 19.4 19.7778 17.5556 19.7778H15.8556C14.0111 19.7778 12.5222 18.2889 12.5222 16.4444V14.1556C13.5 13.9222 14.2222 13.0444 14.2222 12C14.2222 12 14.2222 7.18889 14.2222 7C14.2222 6.81111 14.1889 6.62223 14.1667 6.44445H17.5556C19.3889 6.44445 20.8889 7.93334 20.8889 9.77778V16.4444Z" fill="#2D2D35" stroke="#2D2D35" stroke-width="0.2"/>
</svg>
