<svg width="120" height="37" viewBox="0 0 120 37" fill="none" xmlns="http://www.w3.org/2000/svg">
<g clip-path="url(#clip0_505_31397)">
<path d="M5.74989 19.5144V4.30064H0.0078125V0.511658H15.7557V4.30064H10.0419V19.5144H5.74989Z" fill="#2D2D35"/>
<path d="M19.0654 19.5144V0.511658H32.6551V4.27213H23.3291V7.97602H30.735V11.6225H23.3291V15.7251H32.9082V19.5144H19.0654Z" fill="#2D2D35"/>
<path d="M36.5161 19.5144V0.511658H39.1546L48.7425 11.9112V0.511658H52.9498V19.5144H50.5091L40.7234 7.88652V19.5144H36.5161Z" fill="#2D2D35"/>
<path d="M56.869 19.5144V0.511658H59.5075L69.0954 11.9112V0.511658H73.3027V19.5144H70.862L61.0762 7.88652V19.5144H56.869Z" fill="#2D2D35"/>
<path d="M77.7313 19.5144V0.511658H81.995V19.5144H77.7313Z" fill="#2D2D35"/>
<path d="M84.7018 16.8363L87.4407 13.8448C87.93 14.3768 88.5842 14.8989 89.4031 15.4117C90.2221 15.9246 91.1773 16.1809 92.2691 16.1809C92.7019 16.1809 93.1254 16.1003 93.5398 15.9388C93.9534 15.7777 94.2972 15.54 94.5702 15.2266C94.843 14.9132 94.9797 14.5383 94.9797 14.1011C94.9797 13.3986 94.6408 12.8475 93.9633 12.4488C93.2855 12.05 92.2125 11.6701 90.7444 11.3091C89.3136 10.9486 88.1275 10.3122 87.1866 9.40049C86.245 8.48861 85.7748 7.31123 85.7748 5.86756C85.7748 4.80406 86.0288 3.83062 86.5371 2.94732C87.0454 2.06423 87.8078 1.3521 88.8242 0.810642C89.8406 0.269471 91.1207 -0.0012207 92.6643 -0.0012207C93.9443 -0.0012207 95.022 0.165261 95.8974 0.497299C96.7726 0.829764 97.4738 1.19528 98.001 1.59428C98.5278 1.993 98.8947 2.31637 99.1023 2.56275L96.6455 5.29789C96.2314 4.97509 95.6856 4.60957 95.0079 4.2009C94.3301 3.79273 93.5299 3.58851 92.6079 3.58851C92.0051 3.58851 91.4452 3.76416 90.9278 4.11553C90.4099 4.46712 90.1512 4.88972 90.1512 5.38326C90.1512 6.02914 90.4901 6.55147 91.1678 6.95019C91.8456 7.34919 92.7772 7.68165 93.9632 7.94744C94.8852 8.1752 95.7747 8.51719 96.6315 8.97299C97.4877 9.42878 98.1889 10.0655 98.7351 10.8818C99.2808 11.6987 99.554 12.7622 99.554 14.0728C99.554 15.2123 99.2336 16.2286 98.594 17.1212C97.9538 18.0142 97.0877 18.7167 95.9963 19.2296C94.9041 19.7422 93.6809 19.9988 92.3253 19.9988C91.0829 19.9988 89.982 19.8464 89.0218 19.543C88.0618 19.2392 87.2239 18.845 86.5087 18.3606C85.7932 17.8762 85.191 17.3683 84.7018 16.8363Z" fill="#2D2D35"/>
<path d="M102.744 19.5144V0.511658H107.008V19.5144H102.744Z" fill="#2D2D35"/>
<ellipse cx="107" cy="24" rx="13" ry="13" fill="#FFEB58"/>
<path d="M103.028 23.7706C102.38 23.4192 101.698 23.37 100.986 23.6224C100.201 23.9014 99.7008 24.3932 99.4711 25.0916L98.4589 22.24L97.3438 22.6361L99.9106 29.8674L101.026 29.4712L100.78 28.7794C101.398 29.1761 102.097 29.2428 102.883 28.9638C103.594 28.7108 104.093 28.2435 104.374 27.562C104.655 26.8805 104.658 26.1699 104.391 25.4152C104.126 24.6715 103.676 24.1221 103.028 23.7706ZM103.229 27.1885C103.033 27.6189 102.699 27.9237 102.234 28.0888C101.573 28.3237 100.869 28.1425 100.402 27.7153L99.8451 26.1452C99.9448 25.5394 100.373 24.9453 101.035 24.711C101.499 24.5459 101.951 24.5718 102.378 24.7925C102.802 25.0022 103.1 25.3504 103.264 25.8151C103.433 26.2908 103.421 26.7484 103.229 27.1885Z" fill="#E12B4B"/>
<path d="M109.167 25.6275C108.133 25.9944 107.21 25.7517 106.772 24.9421L110.656 23.5635L110.553 23.2742C110.226 22.3552 109.61 21.6316 108.665 21.3623C108.194 21.2154 107.702 21.2387 107.185 21.4219C106.41 21.6969 105.882 22.1752 105.576 22.8541C105.271 23.533 105.26 24.2579 105.528 25.0113C105.811 25.8073 106.306 26.3523 107.02 26.6578C107.743 26.9594 108.493 26.9723 109.277 26.6934C110.063 26.4144 110.624 26.0293 110.971 25.5336L110.637 24.5938C110.238 25.0728 109.755 25.4184 109.167 25.6275ZM107.467 22.3804C107.88 22.2341 108.245 22.2438 108.57 22.4082C108.896 22.5713 109.109 22.8095 109.229 23.1163L106.481 24.0923C106.319 23.4049 106.651 22.6703 107.467 22.3804Z" fill="#E12B4B"/>
<path d="M115.688 23.0567C115.495 23.2651 115.269 23.4146 114.989 23.5137C114.453 23.7039 114.11 23.559 113.905 22.9797L113.058 20.5941L114.659 20.0252L114.31 19.044L112.709 19.6122L112.185 18.1353L111.069 18.5314L111.593 20.0084L110.509 20.3935L110.858 21.3753L111.942 20.9901L112.903 23.6961C113.255 24.6876 114.04 25.0022 114.992 24.665C115.498 24.485 115.851 24.2669 116.029 24.0171L115.688 23.0567Z" fill="#E12B4B"/>
</g>
<defs>
<clipPath id="clip0_505_31397">
<rect width="120" height="37" fill="white"/>
</clipPath>
</defs>
</svg>
