<svg width="32" height="32" viewBox="0 0 32 32" fill="none" xmlns="http://www.w3.org/2000/svg">
<path d="M6 6H26V26H6V6Z" fill="#74ACDF"/>
<path d="M6 12.6681H26V19.3322H6V12.6681Z" fill="white"/>
<path d="M15.8721 16.0521L17.0121 18.5321C17.0121 18.5321 17.0321 18.5801 17.0641 18.5681C17.0961 18.5521 17.0761 18.5081 17.0761 18.5081L16.1281 15.9481L15.8721 16.0521ZM16.1001 16.9121C16.0841 17.2881 16.3161 17.4961 16.2881 17.8321C16.2561 18.1721 16.4401 18.3601 16.4881 18.4921C16.5281 18.6241 16.4361 18.7001 16.4761 18.7201C16.5161 18.7401 16.5961 18.6361 16.5721 18.4481C16.5441 18.2641 16.4041 18.2081 16.4361 17.7961C16.4681 17.3841 16.2681 17.2881 16.3161 16.9161" fill="#F6B40E"/>
<path d="M16.1001 16.9121C16.0841 17.2881 16.3161 17.4961 16.2881 17.8321C16.2561 18.1721 16.4401 18.3601 16.4881 18.4921C16.5281 18.6241 16.4361 18.7001 16.4761 18.7201C16.5161 18.7401 16.5961 18.6361 16.5721 18.4481C16.5441 18.2641 16.4041 18.2081 16.4361 17.7961C16.4681 17.3841 16.2681 17.2881 16.3161 16.9161M15.8721 16.0521L17.0121 18.5321C17.0121 18.5321 17.0321 18.5801 17.0641 18.5681C17.0961 18.5521 17.0761 18.5081 17.0761 18.5081L16.1281 15.9481L15.8721 16.0521Z" stroke="#85340A" stroke-width="0.352"/>
<path d="M16.1723 16.9761C16.1923 17.3361 16.3963 17.4961 16.3563 17.8281C16.4443 17.5681 16.2323 17.3641 16.2443 16.9801L16.1723 16.9761ZM15.9363 16.0281L16.7163 17.7321L16.0643 15.9761" fill="#85340A"/>
<path d="M16.0001 17.1094C16.6128 17.1094 17.1094 16.6128 17.1094 16.0001C17.1094 15.3874 16.6128 14.8907 16.0001 14.8907C15.3874 14.8907 14.8907 15.3874 14.8907 16.0001C14.8907 16.6128 15.3874 17.1094 16.0001 17.1094Z" fill="#F6B40E" stroke="#85340A" stroke-width="0.46875"/>
<path d="M16.3788 15.7656C16.3007 15.7656 16.2303 15.7968 16.1874 15.8632C16.2733 15.9413 16.4608 15.9492 16.5897 15.8554C16.5627 15.8263 16.5301 15.803 16.4939 15.7869C16.4576 15.7708 16.4185 15.7622 16.3788 15.7617V15.7656ZM16.3788 15.7812C16.453 15.7812 16.5194 15.8124 16.5311 15.8476C16.4452 15.9413 16.3085 15.9335 16.2225 15.8632C16.2393 15.8373 16.2625 15.8161 16.2899 15.8017C16.3173 15.7873 16.3479 15.7803 16.3788 15.7812Z" fill="#843511"/>
<path d="M15.8322 16.1562C15.8191 16.158 15.8067 16.1632 15.7961 16.1711C15.7856 16.1791 15.7772 16.1895 15.7718 16.2016C15.7664 16.2137 15.7641 16.2269 15.7652 16.2401C15.7663 16.2532 15.7707 16.2659 15.7781 16.2769C15.7854 16.2879 15.7954 16.2968 15.8071 16.3029C15.8189 16.309 15.8319 16.312 15.8451 16.3116C15.8583 16.3113 15.8713 16.3076 15.8826 16.3009C15.894 16.2942 15.9035 16.2847 15.9103 16.2734C15.9376 16.2968 15.9767 16.2968 16.0001 16.2968H16.0118C16.0434 16.2978 16.0746 16.2897 16.1017 16.2734C16.1084 16.2847 16.1179 16.2942 16.1293 16.3009C16.1407 16.3076 16.1536 16.3113 16.1668 16.3116C16.18 16.312 16.1931 16.309 16.2048 16.3029C16.2166 16.2968 16.2266 16.2879 16.2339 16.2769C16.2412 16.2659 16.2456 16.2532 16.2467 16.2401C16.2478 16.2269 16.2456 16.2137 16.2402 16.2016C16.2348 16.1895 16.2264 16.1791 16.2159 16.1711C16.2053 16.1632 16.1929 16.158 16.1798 16.1562C16.1993 16.1601 16.215 16.1796 16.215 16.2031C16.215 16.2165 16.2096 16.2294 16.2001 16.239C16.1906 16.2485 16.1777 16.2538 16.1642 16.2538C16.1507 16.2538 16.1378 16.2485 16.1283 16.239C16.1188 16.2294 16.1134 16.2165 16.1134 16.2031C16.103 16.2234 16.0874 16.2407 16.0682 16.253C16.049 16.2654 16.0269 16.2724 16.004 16.2734C15.9819 16.2717 15.9605 16.2644 15.9421 16.2521C15.9236 16.2398 15.9086 16.2229 15.8986 16.2031C15.8986 16.2165 15.8932 16.2294 15.8837 16.239C15.8742 16.2485 15.8612 16.2538 15.8478 16.2538C15.8343 16.2538 15.8214 16.2485 15.8119 16.239C15.8023 16.2294 15.797 16.2165 15.797 16.2031C15.797 16.1796 15.8087 16.164 15.8282 16.1523L15.8322 16.1562ZM15.9103 16.3828C15.8282 16.3828 15.7931 16.4609 15.715 16.5117C15.7618 16.4921 15.7931 16.4609 15.8556 16.4257C15.9142 16.3906 15.965 16.4335 16.0001 16.4335C16.0353 16.4335 16.0861 16.3906 16.1447 16.4257C16.2032 16.4609 16.2384 16.4921 16.2814 16.5117C16.2032 16.457 16.172 16.3828 16.0861 16.3828C16.0562 16.385 16.027 16.393 16.0001 16.4062C15.9733 16.3928 15.9441 16.3848 15.9142 16.3828H15.9103Z" fill="#85340A"/>
<path d="M15.8828 16.4843C15.8349 16.4876 15.7877 16.4968 15.7421 16.5116C15.8984 16.4725 15.9296 16.5272 15.9999 16.5272C16.0703 16.5272 16.1015 16.4764 16.2578 16.5077C16.0859 16.4608 16.0507 16.4921 15.9999 16.4921C15.9648 16.4921 15.9413 16.4803 15.8828 16.4803V16.4843Z" fill="#85340A"/>
<path d="M15.7499 16.5078H15.7186C15.8983 16.5273 15.8085 16.6289 15.9999 16.6289C16.1874 16.6289 16.1014 16.5273 16.2811 16.5117C16.0936 16.4922 16.1522 16.6055 15.9999 16.6055C15.8553 16.6055 15.8983 16.5078 15.7499 16.5078ZM16.1522 16.7852C16.1522 16.7444 16.1363 16.7052 16.1078 16.676C16.0794 16.6468 16.0406 16.6299 15.9999 16.6289C15.9584 16.6289 15.9187 16.6454 15.8894 16.6747C15.8601 16.704 15.8436 16.7437 15.8436 16.7852C15.8525 16.7508 15.8728 16.7204 15.9012 16.6991C15.9296 16.6778 15.9644 16.6668 15.9999 16.668C16.0354 16.6668 16.0702 16.6778 16.0986 16.6991C16.127 16.7204 16.1473 16.7508 16.1561 16.7852H16.1522Z" fill="#85340A"/>
<path d="M15.3085 15.7618C15.5038 15.5899 15.7538 15.5664 15.8905 15.6914C15.9225 15.734 15.9439 15.7835 15.953 15.836C15.9725 15.9336 15.9413 16.0391 15.8632 16.1485C15.8749 16.1485 15.8905 16.1524 15.9022 16.1641C15.9647 16.0313 15.9921 15.8985 15.9686 15.7735C15.9625 15.7402 15.9534 15.7075 15.9413 15.6758C15.7538 15.5196 15.496 15.5039 15.3085 15.7618Z" fill="#85340A"/>
<path d="M15.6173 15.711C15.7267 15.711 15.754 15.7344 15.8048 15.7774C15.8556 15.8204 15.8829 15.8126 15.8907 15.8204C15.8985 15.8282 15.8907 15.8555 15.8712 15.8477C15.8556 15.836 15.8243 15.8204 15.7696 15.7774C15.7189 15.7383 15.6681 15.7383 15.6134 15.7383C15.465 15.7383 15.379 15.8633 15.3595 15.8555C15.3439 15.8477 15.4454 15.711 15.6173 15.711Z" fill="#85340A"/>
<path d="M15.621 15.9258C15.6641 15.9258 15.6991 15.8909 15.6991 15.8477C15.6991 15.8046 15.6641 15.7696 15.621 15.7696C15.5778 15.7696 15.5428 15.8046 15.5428 15.8477C15.5428 15.8909 15.5778 15.9258 15.621 15.9258Z" fill="#85340A"/>
<path d="M15.414 15.8984C15.5585 16.0078 15.7031 15.9999 15.789 15.9492C15.8749 15.8984 15.8749 15.8788 15.8554 15.8788C15.8398 15.8788 15.8203 15.8984 15.7538 15.9296C15.6835 15.9687 15.582 15.9687 15.4101 15.8984H15.414Z" fill="#85340A"/>
</svg>
