<svg width="32" height="32" viewBox="0 0 32 32" fill="none" xmlns="http://www.w3.org/2000/svg">
<g clip-path="url(#clip0_11_3941)">
<path d="M14.0001 6H26.0001V26H13.9962L14.0001 6Z" fill="#FF0000"/>
<path d="M6.00012 6H14.0001V26H5.99622L6.00012 6Z" fill="#006600"/>
<path fill-rule="evenodd" clip-rule="evenodd" d="M17.4768 18.7579C16.1331 18.7189 9.97681 14.8751 9.93774 14.2618L10.2737 13.6954C10.8831 14.5822 17.1799 18.3204 17.7971 18.1876L17.4768 18.7579Z" fill="#FFFF00" stroke="black" stroke-width="0.21875" stroke-linecap="round" stroke-linejoin="round"/>
<path fill-rule="evenodd" clip-rule="evenodd" d="M10.2034 13.6175C10.0823 13.9417 11.8088 15.0081 13.887 16.2737C15.9651 17.5355 17.7541 18.3167 17.8909 18.2073L17.9495 18.0941C17.926 18.1331 17.8635 18.1448 17.7698 18.1175C17.2073 17.9534 15.7424 17.2816 13.9299 16.1839C12.1174 15.0862 10.5393 14.0706 10.2971 13.6409C10.2772 13.601 10.2677 13.5566 10.2698 13.512H10.262L10.2112 13.6019L10.2034 13.6175ZM17.5081 18.7737C17.4846 18.8167 17.4416 18.8167 17.3635 18.8128C16.8596 18.7542 15.3323 18.012 13.5354 16.9339C11.4338 15.6761 9.69946 14.5316 9.89087 14.2347L9.94165 14.1409L9.94946 14.1448C9.78149 14.6526 13.3713 16.7034 13.5823 16.8362C15.6565 18.1253 17.4104 18.8753 17.5666 18.68L17.5081 18.7737Z" fill="#FFFF00" stroke="black" stroke-width="0.21875" stroke-linecap="round" stroke-linejoin="round"/>
<path fill-rule="evenodd" clip-rule="evenodd" d="M14.008 14.6331C15.3478 14.6214 17.008 14.4495 17.9611 14.0706L17.758 13.7347C17.1916 14.0472 15.5275 14.2542 13.9963 14.2816C12.1838 14.2659 10.9064 14.098 10.2658 13.6683L10.0705 14.0237C11.2502 14.5198 12.4533 14.6292 14.008 14.6331Z" fill="#FFFF00" stroke="black" stroke-width="0.21875" stroke-linecap="round" stroke-linejoin="round"/>
<path fill-rule="evenodd" clip-rule="evenodd" d="M18.0195 14.0784C17.9844 14.1292 17.3633 14.344 16.4453 14.5002C15.6359 14.6216 14.8185 14.6817 14 14.6799C13.2163 14.6834 12.4333 14.6338 11.6563 14.5315C10.6992 14.3792 10.1992 14.1682 10.0156 14.094L10.0625 14.0042C10.582 14.2089 11.1233 14.3531 11.6758 14.4338C12.4464 14.5346 13.2229 14.5829 14 14.5784C14.8119 14.5789 15.6228 14.5188 16.4258 14.3987C17.3633 14.2463 17.8789 14.051 17.9492 13.9612L18.0195 14.0784ZM17.8359 13.7346C17.7344 13.8127 17.2266 13.9963 16.3359 14.137C15.5662 14.2475 14.7894 14.3023 14.0117 14.301C13.2618 14.3067 12.5125 14.2584 11.7695 14.1565C10.8594 14.0393 10.3789 13.8245 10.207 13.762L10.2578 13.6721C10.3906 13.7424 10.8594 13.9299 11.7813 14.0627C12.5208 14.1586 13.266 14.2043 14.0117 14.1995C14.7829 14.2005 15.5532 14.1457 16.3164 14.0354C17.2148 13.9104 17.6992 13.6838 17.7734 13.6252L17.8359 13.7346ZM9.59375 16.2502C10.4219 16.6956 12.2539 16.9221 13.9922 16.9377C15.5742 16.9377 17.6367 16.6917 18.4063 16.2815L18.3828 15.8362C18.1445 16.2151 15.9375 16.5784 13.9766 16.5627C12.0156 16.5471 10.1953 16.2424 9.58984 15.8518V16.2502" fill="#FFFF00"/>
<path d="M9.59375 16.2502C10.4219 16.6956 12.2539 16.9221 13.9922 16.9377C15.5742 16.9377 17.6367 16.6917 18.4063 16.2815L18.3828 15.8362C18.1445 16.2151 15.9375 16.5784 13.9766 16.5627C12.0156 16.5471 10.1953 16.2424 9.58984 15.8518V16.2502M18.0195 14.0784C17.9844 14.1292 17.3633 14.344 16.4453 14.5002C15.6359 14.6216 14.8185 14.6817 14 14.6799C13.2163 14.6834 12.4333 14.6338 11.6563 14.5315C10.6992 14.3792 10.1992 14.1682 10.0156 14.094L10.0625 14.0042C10.582 14.2089 11.1233 14.3531 11.6758 14.4338C12.4464 14.5346 13.2229 14.5829 14 14.5784C14.8119 14.5789 15.6228 14.5188 16.4258 14.3987C17.3633 14.2463 17.8789 14.051 17.9492 13.9612L18.0195 14.0784ZM17.8359 13.7346C17.7344 13.8127 17.2266 13.9963 16.3359 14.137C15.5662 14.2475 14.7894 14.3023 14.0117 14.301C13.2618 14.3067 12.5125 14.2584 11.7695 14.1565C10.8594 14.0393 10.3789 13.8245 10.207 13.762L10.2578 13.6721C10.3906 13.7424 10.8594 13.9299 11.7813 14.0627C12.5208 14.1586 13.266 14.2043 14.0117 14.1995C14.7829 14.2005 15.5532 14.1457 16.3164 14.0354C17.2148 13.9104 17.6992 13.6838 17.7734 13.6252L17.8359 13.7346V13.7346Z" stroke="black" stroke-width="0.21875" stroke-linecap="round" stroke-linejoin="round"/>
<path fill-rule="evenodd" clip-rule="evenodd" d="M18.4493 16.1878V16.2933C18.3322 16.4339 17.6056 16.6448 16.6954 16.7894C15.7939 16.9203 14.8838 16.983 13.9728 16.9769C12.9025 16.9769 12.0509 16.8987 11.3868 16.7972C10.7497 16.7248 10.1269 16.5576 9.53918 16.3011V16.1761C9.94543 16.4456 11.0353 16.6409 11.4025 16.6995C12.0587 16.8011 12.9064 16.8753 13.9728 16.8753C15.0939 16.8753 15.9923 16.7972 16.6798 16.6917C17.3361 16.598 18.2657 16.3519 18.4493 16.1878ZM18.4493 15.8089V15.9183C18.3322 16.055 17.6056 16.2659 16.6954 16.4105C15.7939 16.5414 14.8838 16.6041 13.9728 16.598C12.9025 16.598 12.0509 16.5198 11.3907 16.4222C10.7521 16.3488 10.128 16.1803 9.53918 15.9222V15.7972C9.94543 16.0667 11.0353 16.2659 11.4025 16.3206C12.0626 16.4222 12.9103 16.5003 13.9728 16.5003C15.0939 16.5003 15.9923 16.4222 16.6798 16.3128C17.3361 16.2191 18.2657 15.973 18.4493 15.8089ZM13.9884 18.68C12.09 18.6683 10.4611 18.1644 10.1173 18.0784L10.3673 18.4691C10.9728 18.7269 12.5626 19.1097 14.0079 19.0667C15.4532 19.0237 16.715 18.9105 17.6017 18.4808L17.8595 18.0706C17.254 18.3558 15.1915 18.68 13.9923 18.68" fill="#FFFF00"/>
<path d="M13.9884 18.68C12.09 18.6683 10.4611 18.1644 10.1173 18.0784L10.3673 18.4691C10.9728 18.7269 12.5626 19.1097 14.0079 19.0667C15.4532 19.0237 16.715 18.9105 17.6017 18.4808L17.8595 18.0706C17.254 18.3558 15.1915 18.68 13.9923 18.68M18.4493 16.1878V16.2933C18.3322 16.4339 17.6056 16.6448 16.6954 16.7894C15.7939 16.9203 14.8838 16.983 13.9728 16.9769C12.9025 16.9769 12.0509 16.8987 11.3868 16.7972C10.7497 16.7248 10.1269 16.5576 9.53918 16.3011V16.1761C9.94543 16.4456 11.0353 16.6409 11.4025 16.6995C12.0587 16.8011 12.9064 16.8753 13.9728 16.8753C15.0939 16.8753 15.9923 16.7972 16.6798 16.6917C17.3361 16.598 18.2657 16.3519 18.4493 16.1878V16.1878ZM18.4493 15.8089V15.9183C18.3322 16.055 17.6056 16.2659 16.6954 16.4105C15.7939 16.5414 14.8838 16.6041 13.9728 16.598C12.9025 16.598 12.0509 16.5198 11.3907 16.4222C10.7521 16.3488 10.128 16.1803 9.53918 15.9222V15.7972C9.94543 16.0667 11.0353 16.2659 11.4025 16.3206C12.0626 16.4222 12.9103 16.5003 13.9728 16.5003C15.0939 16.5003 15.9923 16.4222 16.6798 16.3128C17.3361 16.2191 18.2657 15.973 18.4493 15.8089V15.8089Z" stroke="black" stroke-width="0.21875" stroke-linecap="round" stroke-linejoin="round"/>
<path fill-rule="evenodd" clip-rule="evenodd" d="M17.6992 18.387C17.6612 18.4449 17.6221 18.5022 17.582 18.5588C17.1388 18.7059 16.6859 18.822 16.2266 18.9065C15.4895 19.0421 14.7416 19.1101 13.9922 19.1096C12.3086 19.0862 10.9297 18.7581 10.2812 18.4768L10.2266 18.387L10.2383 18.3713L10.3242 18.4065C11.5102 18.7995 12.7506 19.0038 14 19.012C14.7813 19.0159 15.5625 18.9221 16.1914 18.8127C17.1602 18.6174 17.5508 18.4729 17.6719 18.4065L17.6992 18.387ZM17.9219 18.0198H17.9258C17.8975 18.0695 17.8689 18.1189 17.8398 18.1682C17.6172 18.2463 17.0078 18.426 16.1211 18.551C15.5352 18.6292 15.1719 18.7073 14.0117 18.7307C12.6824 18.7164 11.3615 18.5192 10.0859 18.1448L10.0391 18.0471C11.3346 18.4027 12.6687 18.5994 14.0117 18.6331C15.0742 18.6096 15.5273 18.5315 16.1055 18.4495C17.1406 18.2932 17.6602 18.1213 17.8164 18.0706C17.8152 18.0679 17.8139 18.0653 17.8125 18.0627L17.9219 18.0198Z" fill="#FFFF00" stroke="black" stroke-width="0.1875" stroke-linecap="round" stroke-linejoin="round"/>
<path fill-rule="evenodd" clip-rule="evenodd" d="M17.9456 15.8987C17.9534 17.1487 17.3127 18.2737 16.7971 18.7698C16.0397 19.5065 15.0293 19.9257 13.9729 19.9417C12.7112 19.9651 11.5237 19.1409 11.2034 18.7816C10.5784 18.0745 10.0706 17.18 10.0549 15.9691C10.1331 14.6019 10.6682 13.6526 11.4456 13.0003C12.1978 12.3816 13.1435 12.047 14.1174 12.055C15.1096 12.0823 16.2737 12.5706 17.0745 13.5394C17.5979 14.1722 17.8284 14.8597 17.9456 15.9026V15.8987ZM13.9846 11.6175C16.4065 11.6175 18.3987 13.5901 18.3987 16.0042C18.3915 17.1701 17.9232 18.2859 17.0962 19.1078C16.2692 19.9297 15.1506 20.391 13.9846 20.3909C11.5627 20.3909 9.58618 18.4222 9.58618 16.0042C9.58618 13.5862 11.5627 11.6175 13.9846 11.6175Z" fill="#FFFF00"/>
<path d="M13.9846 11.6175C16.4065 11.6175 18.3987 13.5901 18.3987 16.0042C18.3915 17.1701 17.9232 18.2859 17.0962 19.1078C16.2692 19.9297 15.1506 20.391 13.9846 20.3909C11.5627 20.3909 9.58618 18.4222 9.58618 16.0042C9.58618 13.5862 11.5627 11.6175 13.9846 11.6175M17.9456 15.8987C17.9534 17.1487 17.3127 18.2737 16.7971 18.7698C16.0397 19.5065 15.0293 19.9257 13.9729 19.9417C12.7112 19.9651 11.5237 19.1409 11.2034 18.7816C10.5784 18.0745 10.0706 17.18 10.0549 15.9691C10.1331 14.6019 10.6682 13.6526 11.4456 13.0003C12.1978 12.3816 13.1435 12.047 14.1174 12.055C15.1096 12.0823 16.2737 12.5706 17.0745 13.5394C17.5979 14.1722 17.8284 14.8597 17.9456 15.9026V15.8987Z" stroke="black" stroke-width="0.21875" stroke-linecap="round" stroke-linejoin="round"/>
<path fill-rule="evenodd" clip-rule="evenodd" d="M13.9962 11.6019C16.418 11.6019 18.3946 13.5823 18.3946 16.0042C18.3946 18.4261 16.418 20.4066 13.9962 20.4066C12.8289 20.4035 11.7103 19.9381 10.8853 19.1123C10.0602 18.2866 9.59587 17.1676 9.59381 16.0003C9.5969 14.8337 10.0617 13.7157 10.8866 12.8908C11.7116 12.0659 12.8295 11.6011 13.9962 11.598V11.6019ZM9.69147 16.0042C9.69147 18.3714 11.6368 20.3089 13.9962 20.3089C16.3555 20.3089 18.2969 18.3714 18.2969 16.0042C18.2969 13.637 16.3555 11.7034 13.9962 11.7034C12.8564 11.7075 11.7645 12.1619 10.9582 12.9674C10.1519 13.773 9.69661 14.8645 9.69147 16.0042Z" fill="#FFFF00" stroke="black" stroke-width="0.21875" stroke-linecap="round" stroke-linejoin="round"/>
<path fill-rule="evenodd" clip-rule="evenodd" d="M14.0001 11.9691C16.2071 11.9691 18.0274 13.7855 18.0274 16.0003C18.0274 18.2191 16.2071 20.0316 14.0001 20.0316C12.9315 20.0285 11.9075 19.6029 11.1516 18.8477C10.3956 18.0924 9.96903 17.0689 9.9649 16.0003C9.9649 13.7855 11.7852 11.9691 13.9962 11.9691H14.0001ZM10.0626 16.0003C10.0626 18.1644 11.8399 19.9339 14.0001 19.9339C16.1563 19.9339 17.9337 18.1644 17.9337 16.0003C17.9337 13.8362 16.1563 12.0667 13.9962 12.0667C11.836 12.0667 10.0626 13.8362 10.0626 16.0003Z" fill="#FFFF00" stroke="black" stroke-width="0.21875" stroke-linecap="round" stroke-linejoin="round"/>
<path fill-rule="evenodd" clip-rule="evenodd" d="M14.1759 11.5861H13.797V20.4298H14.1759V11.5861Z" fill="#FFFF00" stroke="black" stroke-width="0.21875" stroke-linecap="round" stroke-linejoin="round"/>
<path fill-rule="evenodd" clip-rule="evenodd" d="M14.1369 11.5354H14.2346V20.4807H14.1369V11.5354ZM13.7619 11.5354H13.8596V20.4807H13.7619V11.5354Z" fill="#FFFF00" stroke="black" stroke-width="0.21875" stroke-linecap="round" stroke-linejoin="round"/>
<path fill-rule="evenodd" clip-rule="evenodd" d="M18.3986 16.176V15.844L18.1329 15.5979L16.6212 15.1956L14.4415 14.9729L11.8243 15.1057L9.95325 15.551L9.57825 15.8323V16.1565L10.5314 15.7268L12.797 15.3752H14.9767L16.5782 15.551L17.6876 15.8206L18.3986 16.176Z" fill="#FFFF00" stroke="black" stroke-width="0.21875" stroke-linecap="round" stroke-linejoin="round"/>
<path fill-rule="evenodd" clip-rule="evenodd" d="M13.9962 15.3243C14.9513 15.3204 15.9046 15.4054 16.8439 15.5783C17.6681 15.7423 18.2501 15.9493 18.4454 16.1798V16.297C18.2111 16.0079 17.4298 15.797 16.8243 15.672C16.0314 15.5197 15.0275 15.422 13.9962 15.422C12.9025 15.422 11.8868 15.5275 11.1056 15.6798C10.4806 15.8048 9.64465 16.0509 9.53918 16.297V16.1798C9.59778 16.0079 10.2189 15.754 11.0939 15.5783C12.0515 15.4045 13.023 15.3195 13.9962 15.3243ZM13.9962 14.9454C14.9525 14.9417 15.9071 15.0267 16.8478 15.1993C17.6681 15.3634 18.254 15.5704 18.4493 15.8048V15.9181C18.2111 15.629 17.4259 15.4181 16.8243 15.297C16.0314 15.1408 15.0275 15.0431 13.9962 15.0431C13.0294 15.0401 12.0644 15.1264 11.1134 15.3009C10.5079 15.4181 9.63684 15.6759 9.53918 15.9181V15.8009C9.59778 15.6329 10.2345 15.3712 11.0939 15.2033C12.0513 15.0282 13.0229 14.9419 13.9962 14.9454ZM13.9767 13.0197C15.6134 13.0118 17.0431 13.2501 17.6954 13.5861L17.9337 13.9962C17.3673 13.6915 15.8243 13.3712 13.9767 13.422C12.4728 13.4298 10.8673 13.5861 10.0587 14.0158L10.3439 13.5392C11.0079 13.1954 12.5704 13.0236 13.9767 13.0197Z" fill="#FFFF00" stroke="black" stroke-width="0.21875" stroke-linecap="round" stroke-linejoin="round"/>
<path fill-rule="evenodd" clip-rule="evenodd" d="M13.9963 13.3596C14.9338 13.3596 15.8322 13.4104 16.551 13.5393C17.2189 13.6643 17.8596 13.8518 17.9494 13.9534L18.0197 14.0784C17.7971 13.9339 17.2463 13.7698 16.5353 13.637C15.6959 13.5033 14.8462 13.4444 13.9963 13.4612C12.9416 13.4612 12.1213 13.512 11.4182 13.637C10.676 13.7737 10.1603 13.9729 10.0314 14.0667L10.1017 13.9378C10.3478 13.8089 10.7424 13.6565 11.4025 13.5393C12.1291 13.4065 12.9533 13.3675 13.9963 13.3596ZM13.9963 12.9846C14.8213 12.9717 15.6459 13.0292 16.4611 13.1565C17.0041 13.262 17.5392 13.426 17.7385 13.5706L17.84 13.7346C17.6642 13.5393 17.0041 13.3557 16.4182 13.2542C15.7385 13.137 14.8908 13.0901 13.9963 13.0823C13.0588 13.0823 12.1916 13.1409 11.5197 13.262C10.8791 13.387 10.465 13.5315 10.2892 13.6448L10.3791 13.5042C10.6213 13.3792 11.0119 13.262 11.5041 13.1643C12.1799 13.0432 13.0549 12.9846 13.9963 12.9846ZM16.1838 17.8323C15.4615 17.7078 14.729 17.6528 13.9963 17.6682C11.2658 17.6995 10.3869 18.2268 10.2775 18.387L10.0744 18.055C10.7658 17.551 12.2502 17.2698 14.008 17.2971C14.9182 17.3128 15.7033 17.3753 16.3674 17.5003L16.1799 17.8323" fill="#FFFF00"/>
<path d="M16.1838 17.8323C15.4615 17.7078 14.729 17.6528 13.9963 17.6682C11.2658 17.6995 10.3869 18.2268 10.2775 18.387L10.0744 18.055C10.7658 17.551 12.2502 17.2698 14.008 17.2971C14.9182 17.3128 15.7033 17.3753 16.3674 17.5003L16.1799 17.8323M13.9963 13.3596C14.9338 13.3596 15.8322 13.4104 16.551 13.5393C17.2189 13.6643 17.8596 13.8518 17.9494 13.9534L18.0197 14.0784C17.7971 13.9339 17.2463 13.7698 16.5353 13.637C15.6959 13.5033 14.8462 13.4444 13.9963 13.4612C12.9416 13.4612 12.1213 13.512 11.4182 13.637C10.676 13.7737 10.1603 13.9729 10.0314 14.0667L10.1017 13.9378C10.3478 13.8089 10.7424 13.6565 11.4025 13.5393C12.1291 13.4065 12.9533 13.3675 13.9963 13.3596V13.3596ZM13.9963 12.9846C14.8213 12.9717 15.6459 13.0292 16.4611 13.1565C17.0041 13.262 17.5392 13.426 17.7385 13.5706L17.84 13.7346C17.6642 13.5393 17.0041 13.3557 16.4182 13.2542C15.7385 13.137 14.8908 13.0901 13.9963 13.0823C13.0588 13.0823 12.1916 13.1409 11.5197 13.262C10.8791 13.387 10.465 13.5315 10.2892 13.6448L10.3791 13.5042C10.6213 13.3792 11.0119 13.262 11.5041 13.1643C12.1799 13.0432 13.0549 12.9846 13.9963 12.9846V12.9846Z" stroke="black" stroke-width="0.21875" stroke-linecap="round" stroke-linejoin="round"/>
<path fill-rule="evenodd" clip-rule="evenodd" d="M13.9807 17.6213C14.7385 17.633 15.4846 17.6603 16.2073 17.797L16.1526 17.8908C15.4368 17.7672 14.7109 17.7109 13.9846 17.7228C12.9768 17.715 11.9534 17.8088 11.0706 18.0627C10.7893 18.1408 10.3284 18.3205 10.2776 18.4689L10.2268 18.383C10.2424 18.297 10.5237 18.1134 11.0471 17.9689C12.0627 17.6759 13.012 17.6291 13.9768 17.6173L13.9807 17.6213ZM14.0159 17.2384C14.816 17.2377 15.6146 17.307 16.4026 17.4455L16.3479 17.5431C15.5799 17.4026 14.8005 17.3346 14.0198 17.34C13.0081 17.34 11.9377 17.4142 10.9612 17.6955C10.6487 17.7892 10.1018 17.9845 10.0862 18.1408L10.0354 18.0509C10.0471 17.9103 10.5159 17.7228 10.9417 17.5978C11.9447 17.3355 12.9794 17.2145 14.0159 17.2384Z" fill="#FFFF00" stroke="black" stroke-width="0.1875" stroke-linecap="round" stroke-linejoin="round"/>
<path fill-rule="evenodd" clip-rule="evenodd" d="M17.8907 18.1058L17.5626 18.6136L16.6212 17.7776L14.1759 16.137L11.422 14.6214L9.9884 14.1331L10.2931 13.5667L10.3986 13.512L11.2892 13.7347L14.2189 15.2464L15.9103 16.3128L17.3282 17.3284L17.9064 17.9964L17.8907 18.1058Z" fill="#FFFF00" stroke="black" stroke-width="0.21875" stroke-linecap="round" stroke-linejoin="round"/>
<path fill-rule="evenodd" clip-rule="evenodd" d="M9.9375 14.1448C10.1914 13.9768 12.0352 14.7971 13.9609 15.9612C15.8867 17.1292 17.7266 18.4456 17.5625 18.6956L17.5078 18.7776L17.4805 18.7971C17.4883 18.7971 17.5156 18.7581 17.4805 18.6682C17.3945 18.3987 16.0938 17.3596 13.9258 16.051C11.8164 14.7932 10.0586 14.0354 9.88281 14.2542L9.9375 14.1448ZM17.957 18.0979C18.1133 17.7854 16.4063 16.4963 14.2852 15.2424C12.1172 14.012 10.5508 13.2893 10.2656 13.5042L10.2031 13.6213C10.2031 13.6252 10.2031 13.6135 10.2188 13.6018C10.2695 13.5588 10.3555 13.5627 10.3945 13.5627C10.8867 13.5667 12.293 14.2112 14.2617 15.344C15.125 15.844 17.9102 17.6331 17.8984 18.1331C17.8984 18.176 17.9023 18.1838 17.8867 18.2073L17.957 18.0979Z" fill="#FFFF00" stroke="black" stroke-width="0.21875" stroke-linecap="round" stroke-linejoin="round"/>
<path d="M11.3586 16.487C11.3592 16.832 11.4283 17.1735 11.5618 17.4916C11.6953 17.8097 11.8906 18.0982 12.1364 18.3404C12.3791 18.5869 12.6682 18.7829 12.9871 18.9171C13.3059 19.0514 13.6482 19.1212 13.9941 19.1226C14.6943 19.1225 15.3658 18.8444 15.8608 18.3493C16.1057 18.1058 16.3001 17.8163 16.4328 17.4975C16.5655 17.1787 16.6339 16.8368 16.6341 16.4915V12.9715L11.3586 12.9626V16.487Z" fill="white" stroke="black" stroke-width="0.248889"/>
<path d="M11.4564 16.4913C11.4574 16.8222 11.5238 17.1497 11.652 17.4548C11.7801 17.76 11.9674 18.0367 12.2031 18.2691C12.6763 18.7447 13.3188 19.0133 13.9898 19.0157C14.6595 19.0161 15.3021 18.7508 15.7764 18.278C16.0113 18.0452 16.1978 17.7683 16.3251 17.4632C16.4525 17.1581 16.5183 16.8308 16.5186 16.5002V13.0779H11.4653V16.4913H11.4564ZM15.5098 14.1046V16.2779L15.5053 16.5046C15.5068 16.7032 15.4682 16.9 15.3919 17.0833C15.3155 17.2666 15.2029 17.4325 15.0609 17.5713C14.7782 17.8549 14.3946 18.0147 13.9942 18.0157C13.5764 18.0157 13.2075 17.838 12.932 17.5624C12.6484 17.2798 12.4885 16.8961 12.4875 16.4957V14.0957L15.5098 14.1046Z" fill="#FF0000" stroke="black" stroke-width="0.177778"/>
<path d="M11.785 13.9715C11.7894 13.7271 11.9628 13.6693 11.9628 13.6693C11.9672 13.6693 12.1539 13.7315 12.1539 13.976H11.785" fill="#FFFF00"/>
<path d="M11.6339 13.6738L11.6028 13.9538H11.7895C11.7895 13.7226 11.9673 13.6871 11.9673 13.6871C11.9717 13.6871 12.145 13.736 12.1495 13.9538H12.3361L12.3006 13.6693H11.6339V13.6738ZM11.5895 13.9582H12.345C12.3584 13.9582 12.3717 13.9715 12.3717 13.9893C12.3717 14.0115 12.3584 14.0249 12.345 14.0249H11.5895C11.5761 14.0249 11.5628 14.0115 11.5628 13.9893C11.5628 13.9715 11.5761 13.9582 11.5939 13.9582H11.5895Z" fill="#FFFF00" stroke="black" stroke-width="0.177778"/>
<path d="M11.8655 13.9536C11.8655 13.8069 11.9677 13.7669 11.9677 13.7669C11.9677 13.7669 12.0699 13.8114 12.0699 13.9536H11.8655ZM11.6077 13.5536H12.3322C12.3455 13.5536 12.3588 13.5714 12.3588 13.5892C12.3588 13.6025 12.3455 13.6158 12.3322 13.6158H11.6077C11.5944 13.6158 11.5811 13.6025 11.5811 13.5847C11.5811 13.5714 11.5944 13.558 11.6077 13.558V13.5536ZM11.6255 13.6203H12.3099C12.3233 13.6203 12.3366 13.6336 12.3366 13.6514C12.3366 13.6692 12.3233 13.6825 12.3099 13.6825H11.6211C11.6033 13.6825 11.5944 13.6692 11.5944 13.6514C11.5944 13.6336 11.6033 13.6203 11.6211 13.6203H11.6255ZM11.8477 13.1492H11.9011V13.1847H11.9411V13.1492H11.9988V13.1892H12.0388V13.1447H12.0922V13.2336C12.0922 13.2514 12.0833 13.2603 12.0699 13.2603H11.8744C11.8611 13.2603 11.8477 13.2514 11.8477 13.238V13.1492ZM12.0522 13.2692L12.0655 13.5536H11.8744L11.8877 13.2647H12.0522" fill="#FFFF00"/>
<path d="M12.0522 13.2692L12.0655 13.5536H11.8744L11.8877 13.2647H12.0522M11.8655 13.9536C11.8655 13.8069 11.9677 13.7669 11.9677 13.7669C11.9677 13.7669 12.0699 13.8114 12.0699 13.9536H11.8655ZM11.6077 13.5536H12.3322C12.3455 13.5536 12.3588 13.5714 12.3588 13.5892C12.3588 13.6025 12.3455 13.6158 12.3322 13.6158H11.6077C11.5944 13.6158 11.5811 13.6025 11.5811 13.5847C11.5811 13.5714 11.5944 13.558 11.6077 13.558V13.5536ZM11.6255 13.6203H12.3099C12.3233 13.6203 12.3366 13.6336 12.3366 13.6514C12.3366 13.6692 12.3233 13.6825 12.3099 13.6825H11.6211C11.6033 13.6825 11.5944 13.6692 11.5944 13.6514C11.5944 13.6336 11.6033 13.6203 11.6211 13.6203H11.6255ZM11.8477 13.1492H11.9011V13.1847H11.9411V13.1492H11.9988V13.1892H12.0388V13.1447H12.0922V13.2336C12.0922 13.2514 12.0833 13.2603 12.0699 13.2603H11.8744C11.8611 13.2603 11.8477 13.2514 11.8477 13.238V13.1492Z" stroke="black" stroke-width="0.177778"/>
<path d="M11.8205 13.4026V13.5537H11.6428V13.4026H11.8205Z" fill="#FFFF00" stroke="black" stroke-width="0.177778"/>
<path d="M11.6116 13.2869H11.665V13.3314H11.705V13.2869H11.7583V13.3314H11.7983V13.2869H11.8516V13.3758C11.8516 13.3936 11.8427 13.4025 11.8294 13.4025H11.6383C11.6312 13.4025 11.6244 13.3997 11.6194 13.3947C11.6144 13.3897 11.6116 13.3829 11.6116 13.3758V13.2869Z" fill="#FFFF00" stroke="black" stroke-width="0.177778"/>
<path d="M11.9495 13.3582C11.9495 13.3315 11.9895 13.3315 11.9895 13.3582V13.4293H11.9495V13.3582Z" fill="black"/>
<path d="M11.7139 13.4559C11.7139 13.4292 11.7494 13.4292 11.7494 13.4559V13.5092H11.7139V13.4559Z" fill="black"/>
<path d="M13.6699 16.1046C13.6691 16.1984 13.704 16.289 13.7677 16.358C13.7973 16.3912 13.8336 16.4178 13.8742 16.4362C13.9147 16.4545 13.9587 16.4642 14.0032 16.4646C14.0965 16.4646 14.181 16.4202 14.2388 16.358C14.3024 16.289 14.3373 16.1984 14.3365 16.1046V15.6246H13.6699V16.1046Z" fill="#003399"/>
<path d="M13.8251 15.8736C13.8619 15.8736 13.8918 15.8437 13.8918 15.8069C13.8918 15.7701 13.8619 15.7402 13.8251 15.7402C13.7883 15.7402 13.7584 15.7701 13.7584 15.8069C13.7584 15.8437 13.7883 15.8736 13.8251 15.8736Z" fill="white"/>
<path d="M14.194 15.8736C14.2309 15.8736 14.2607 15.8437 14.2607 15.8069C14.2607 15.7701 14.2309 15.7402 14.194 15.7402C14.1572 15.7402 14.1274 15.7701 14.1274 15.8069C14.1274 15.8437 14.1572 15.8736 14.194 15.8736Z" fill="white"/>
<path d="M14.0073 16.0512C14.0441 16.0512 14.0739 16.0213 14.0739 15.9845C14.0739 15.9477 14.0441 15.9178 14.0073 15.9178C13.9705 15.9178 13.9406 15.9477 13.9406 15.9845C13.9406 16.0213 13.9705 16.0512 14.0073 16.0512Z" fill="white"/>
<path d="M13.8251 16.238C13.8619 16.238 13.8918 16.2081 13.8918 16.1713C13.8918 16.1345 13.8619 16.1046 13.8251 16.1046C13.7883 16.1046 13.7584 16.1345 13.7584 16.1713C13.7584 16.2081 13.7883 16.238 13.8251 16.238Z" fill="white"/>
<path d="M14.194 16.238C14.2309 16.238 14.2607 16.2081 14.2607 16.1713C14.2607 16.1345 14.2309 16.1046 14.194 16.1046C14.1572 16.1046 14.1274 16.1345 14.1274 16.1713C14.1274 16.2081 14.1572 16.238 14.194 16.238Z" fill="white"/>
</g>
<defs>
<clipPath id="clip0_11_3941">
<rect x="6" y="6" width="20" height="20" rx="10" fill="white"/>
</clipPath>
</defs>
</svg>
