<svg width="24" height="24" viewBox="0 0 24 24" fill="none" xmlns="http://www.w3.org/2000/svg">
<path d="M12.3603 3.67043C14.6456 4.83711 18.2496 7.46374 18.8733 12.6231C19.4225 17.1665 16.2396 20.3401 12.8342 20.7828L12.7494 20.7939C12.6764 20.8145 12.6128 20.8228 12.5491 20.8311C12.5279 20.8338 12.5067 20.8366 12.4855 20.8393C8.98467 21.2944 5.76796 18.7515 5.16995 15.0526C4.84437 13.0724 5.33436 11.0645 6.48491 9.52941C6.93086 10.6335 7.49221 11.8008 8.16085 12.6078L8.90644 13.5165L9.71906 12.6622C11.4252 10.9096 12.3087 7.87846 12.3603 3.67043ZM11.2856 2C11.2007 2.01103 11.8873 8.84948 8.95628 11.8787C8.05945 10.7885 7.3095 8.77414 6.8887 7.52152C4.69724 9.35954 3.63204 12.3138 4.11441 15.2345C4.81739 19.5343 8.58723 22.4634 12.6185 21.9394C12.7352 21.9242 12.8519 21.9091 12.9672 21.8829C17.6986 21.2678 20.4701 16.9186 19.9341 12.4852C19.2333 6.68779 14.9262 3.3257 11.2856 2Z" fill="#2D2D35"/>
<path d="M12.3603 3.67043L12.474 3.44777L12.1153 3.26464L12.1103 3.66737L12.3603 3.67043ZM18.8733 12.6231L19.1215 12.5931L18.8733 12.6231ZM12.8342 20.7828L12.8665 21.0307H12.8665L12.8342 20.7828ZM12.7494 20.7939L12.7171 20.5459L12.6989 20.5483L12.6812 20.5533L12.7494 20.7939ZM12.5491 20.8311L12.5169 20.5831L12.5491 20.8311ZM12.4855 20.8393L12.5177 21.0872L12.4855 20.8393ZM5.16995 15.0526L5.41674 15.0127L5.41663 15.012L5.16995 15.0526ZM6.48491 9.52941L6.71672 9.43578L6.55071 9.02478L6.28486 9.37947L6.48491 9.52941ZM8.16085 12.6078L8.35412 12.4492L8.35336 12.4483L8.16085 12.6078ZM8.90644 13.5165L8.71317 13.6751L8.89261 13.8938L9.08758 13.6888L8.90644 13.5165ZM9.71906 12.6622L9.53992 12.4878L9.53793 12.4899L9.71906 12.6622ZM11.2856 2L11.3711 1.76509L11.3138 1.74423L11.2533 1.75209L11.2856 2ZM8.95628 11.8787L8.76321 12.0375L8.94116 12.2538L9.13594 12.0525L8.95628 11.8787ZM6.8887 7.52152L7.12568 7.44191L7.00893 7.09438L6.72804 7.32997L6.8887 7.52152ZM4.11441 15.2345L4.36114 15.1941L4.36107 15.1937L4.11441 15.2345ZM12.6185 21.9394L12.6507 22.1873L12.6185 21.9394ZM12.9672 21.8829L12.935 21.635L12.9234 21.6365L12.9119 21.6391L12.9672 21.8829ZM19.9341 12.4852L20.1823 12.4552L19.9341 12.4852ZM12.2466 3.8931C14.498 5.04245 18.0158 7.61282 18.6251 12.6531L19.1215 12.5931C18.4834 7.31466 14.7932 4.63178 12.474 3.44777L12.2466 3.8931ZM18.6251 12.6531C19.1566 17.0499 16.0818 20.1085 12.802 20.5349L12.8665 21.0307C16.3973 20.5717 19.6884 17.283 19.1215 12.5931L18.6251 12.6531ZM12.6812 20.5533C12.6281 20.5684 12.5813 20.5748 12.5169 20.5831L12.5814 21.079C12.6442 21.0708 12.7247 21.0607 12.8175 21.0344L12.6812 20.5533ZM12.5169 20.5831C12.5063 20.5845 12.4957 20.5859 12.4851 20.5873C12.4745 20.5887 12.4639 20.59 12.4533 20.5914L12.5177 21.0872C12.5283 21.0859 12.5389 21.0845 12.5495 21.0831C12.5602 21.0817 12.5708 21.0803 12.5814 21.079L12.5169 20.5831ZM12.4533 20.5914C9.09931 21.0274 5.99535 18.5916 5.41674 15.0127L4.92315 15.0925C5.54057 18.9115 8.87004 21.5614 12.5177 21.0872L12.4533 20.5914ZM5.41663 15.012C5.10182 13.0973 5.5763 11.1585 6.68496 9.67935L6.28486 9.37947C5.09241 10.9705 4.58693 13.0476 4.92326 15.0931L5.41663 15.012ZM6.2531 9.62304C6.70087 10.7316 7.27385 11.9291 7.96835 12.7673L8.35336 12.4483C7.71057 11.6725 7.16086 10.5354 6.71672 9.43578L6.2531 9.62304ZM7.96758 12.7664L8.71317 13.6751L9.09971 13.3579L8.35412 12.4492L7.96758 12.7664ZM9.08758 13.6888L9.9002 12.8345L9.53793 12.4899L8.7253 13.3442L9.08758 13.6888ZM9.8982 12.8366C11.6722 11.0143 12.5584 7.90216 12.6103 3.6735L12.1103 3.66737C12.059 7.85476 11.1782 10.8049 9.53993 12.4878L9.8982 12.8366ZM11.2533 1.75209C11.1424 1.7665 11.0874 1.84384 11.0717 1.86911C11.0527 1.89945 11.0445 1.92703 11.0413 1.93834C11.0343 1.96352 11.0319 1.98627 11.0309 1.99687C11.0285 2.0219 11.0278 2.05089 11.0276 2.07779C11.0273 2.13397 11.029 2.21361 11.0314 2.30975C11.0364 2.50475 11.0447 2.78212 11.048 3.12462C11.0546 3.80938 11.0409 4.75025 10.9394 5.78308C10.7349 7.86457 10.179 10.2555 8.77661 11.7048L9.13594 12.0525C10.6646 10.4727 11.2309 7.92976 11.437 5.83197C11.5409 4.77516 11.5547 3.81503 11.548 3.11981C11.5446 2.77233 11.5362 2.48996 11.5313 2.29705C11.5288 2.19922 11.5273 2.12786 11.5276 2.08118C11.5277 2.06987 11.5279 2.06102 11.5281 2.05429C11.5284 2.0472 11.5286 2.04438 11.5286 2.04455C11.5286 2.04473 11.5284 2.04698 11.5278 2.05071C11.5273 2.05389 11.5259 2.06193 11.523 2.07261C11.5208 2.08045 11.5136 2.10539 11.4958 2.1339C11.4812 2.15734 11.4274 2.23367 11.3178 2.24791L11.2533 1.75209ZM9.14934 11.7198C8.7228 11.2013 8.32204 10.4501 7.97262 9.6599C7.62484 8.87344 7.33493 8.06479 7.12568 7.44191L6.65171 7.60113C6.86327 8.23087 7.15874 9.05571 7.51534 9.86212C7.8703 10.6648 8.29293 11.4658 8.76321 12.0375L9.14934 11.7198ZM6.72804 7.32997C4.46622 9.22701 3.37155 12.2708 3.86776 15.2752L4.36107 15.1937C3.89252 12.3568 4.92825 9.49207 7.04935 7.71307L6.72804 7.32997ZM3.86769 15.2748C4.59048 19.6959 8.47402 22.7303 12.6507 22.1873L12.5862 21.6915C8.70044 22.1966 5.04431 19.3728 4.36114 15.1941L3.86769 15.2748ZM12.6507 22.1873C12.7655 22.1724 12.8938 22.1559 13.0225 22.1267L12.9119 21.6391C12.8099 21.6622 12.7048 21.6761 12.5862 21.6915L12.6507 22.1873ZM12.9994 22.1308C17.887 21.4955 20.7322 17.0037 20.1823 12.4552L19.6859 12.5152C20.208 16.8334 17.5102 21.0402 12.935 21.635L12.9994 22.1308ZM20.1823 12.4552C19.4666 6.53489 15.0685 3.11144 11.3711 1.76509L11.2 2.23491C14.784 3.53997 19 6.84069 19.6859 12.5152L20.1823 12.4552ZM12.802 20.5349L12.7171 20.5459L12.7816 21.0418L12.8665 21.0307L12.802 20.5349Z" fill="#2D2D35"/>
</svg>
